<svg width="123" height="44" viewBox="0 0 123 44" fill="none" xmlns="http://www.w3.org/2000/svg">
<path d="M114.797 22.0964C104.509 21.8664 94.2329 21.6183 83.937 21.4828C83.2238 21.4689 82.2853 22.1882 81.8208 22.8245C70.8364 38.0719 55.7992 44.8628 37.2217 43.6605C34.1333 43.4608 31.0722 42.2823 28.1691 40.1552C24.3332 37.357 23.744 32.5906 26.6327 28.8101C29.1566 25.5031 32.6819 23.7304 36.4331 22.3201C44.7496 19.2269 53.4915 18.1614 62.245 17.4017C67.793 16.9181 73.3597 16.7695 79.0845 16.444C79.2866 13.8798 77.7154 11.0006 75.5054 9.8955C71.3246 7.78204 68.8701 7.52271 65.1343 6.8766C53.411 4.84612 41.6754 5.72011 30.1642 8.29963C21.5964 10.2185 13.1758 12.7502 4.69219 15.0193C3.95152 15.2126 3.21377 15.4824 2.50635 15.6214C1.40145 15.8405 0.540468 15.6615 0.14808 14.7988C-0.376207 14.0296 0.615911 13.0196 1.19194 12.5263C2.13856 11.7125 3.28016 11.0679 4.44164 10.6346C22.6985 3.62605 41.4403 -0.720936 61.1619 1.13252C65.4895 1.54389 69.8073 2.62126 73.9628 3.92279C79.9256 5.80889 83.8499 9.68164 83.8773 16.543C93.6595 17.1105 103.3 17.6657 113.111 18.2262C110.397 16.5631 107.827 14.9887 105.239 13.4032C104.805 13.1371 104.338 12.9253 103.925 12.623C102.805 11.8119 101.104 11.0937 102.038 9.32607C102.949 7.59467 104.535 8.54116 105.577 9.15504C110.885 12.2326 116.177 15.3755 121.329 18.7064C123.431 20.0689 123.598 22.1124 121.554 23.4985C115.678 27.5643 109.586 31.3734 103.498 35.1351C102.935 35.4866 101.535 35.6993 100.814 34.5606C100.342 33.6245 101.114 32.405 101.715 31.9519C105.351 29.2266 109.117 26.6554 112.857 24.0439C113.517 23.5768 114.212 23.132 114.89 22.676C116.14 22.0979 115.605 22.1184 114.797 22.0964ZM77.7925 21.9245C78.246 21.3063 76.7477 21.5581 76.5183 21.5669C64.5135 22.0271 52.5525 22.8626 40.9679 26.2932C37.8692 27.2072 34.8161 28.6967 32.1349 30.5136C28.5818 32.9412 29.0516 36.4398 33.0993 37.9988C35.7179 39.0058 38.6377 39.7244 41.4365 39.7467C53.3229 39.886 66.4516 34.0165 72.6267 27.9188C74.9634 25.5672 75.429 24.8072 77.7925 21.9245Z" fill="#222222"/>
</svg>
