<svg width="284" height="352" viewBox="0 0 284 352" fill="none" xmlns="http://www.w3.org/2000/svg">
<path d="M276.062 32.0453C272.036 24.066 266.432 16.9107 259.355 11.4858C236.801 -5.80595 200.396 -0.600793 183.591 22.3173C182.169 24.2567 180.55 26.4934 178.153 26.6892C176.289 26.8412 174.613 25.678 173.005 24.7228C163.272 18.9409 149.961 19.9531 141.215 27.1405C131.865 15.4074 114.953 10.3496 100.697 15.0234C86.4407 19.6971 75.8054 33.7858 75.2169 48.7766C55.4662 47.6506 36.3636 64.1509 34.6058 83.8552C32.8484 103.559 48.7286 123.18 68.3666 125.567C56.5652 124.798 44.0303 124.18 33.6506 129.848C29.2446 132.255 25.4703 135.692 22.1617 139.468C8.82118 154.692 2.95409 175.274 1.70774 195.478C-0.420828 229.98 12.318 267.794 42.117 285.313C49.1753 289.464 57.352 292.709 61.7509 299.616C56.7681 306.698 51.745 314.912 53.3198 323.427C55.7089 336.349 71.0536 341.666 83.9709 344.076C129.621 352.594 177.793 355.101 221.615 339.732C232.526 335.904 244.553 329.067 245.824 317.574C246.849 308.298 240.341 300.117 236.829 291.471C233.011 282.071 232.699 271.672 232.44 261.531C231.314 217.573 230.187 173.615 229.061 129.657C229.09 130.782 246.723 125.438 248.204 124.773C254.437 121.978 259.901 118.097 264.885 113.458C274.239 104.751 279.674 91.7009 282.134 79.2589C284.454 67.5293 284.06 55.2347 280.68 43.7484C279.497 39.7289 277.954 35.7961 276.062 32.0453ZM66.2151 254.095C65.5124 254.076 65.1595 253.786 64.7775 253.592C62.0768 252.219 59.3873 250.817 56.6789 249.46C55.4805 248.862 54.4417 248.084 53.51 247.125C49.1187 242.597 46.009 237.253 43.6076 231.472C40.2148 223.308 38.4085 214.774 37.8593 205.97C37.2132 195.615 38.2148 185.449 41.5264 175.567C42.7595 171.893 44.3292 168.368 46.3399 165.051C46.9162 164.098 46.9458 164.093 47.8938 164.699C53.4585 168.25 59.0155 171.812 64.5725 175.374C65.0279 175.662 65.4696 175.958 65.9862 176.141C67.3783 176.631 67.9245 177.414 67.8924 178.909C67.5584 193.631 67.2223 208.355 66.8857 223.08C66.6618 232.912 66.4385 242.742 66.2151 252.574C66.2044 253.062 66.2151 253.546 66.2151 254.095Z" fill="#222222"/>
<path d="M274.795 66.0189C274.778 67.764 274.676 69.5086 274.487 71.2455C272.595 88.6882 261.982 104.965 246.785 113.733C238.868 118.301 229.627 120.904 220.539 119.937C211.449 118.968 202.602 114.152 197.783 106.384C196.011 103.528 193.08 99.7543 190.22 101.52C187.858 102.979 188.768 106.624 190.239 108.978C194.073 115.12 199.894 119.999 206.611 122.7C203.252 134.936 190.915 144.076 178.232 143.727C165.549 143.376 153.734 133.57 151.056 121.167C150.534 118.75 150.054 115.877 147.831 114.795C145.198 113.515 141.999 116.044 141.46 118.923C140.921 121.8 142.164 124.681 143.378 127.345C135.878 134.462 125.662 139.269 115.365 138.328C105.068 137.388 95.1731 129.741 93.5259 119.533C102.102 116.889 109.703 111.191 114.645 103.699C115.306 102.697 115.942 101.59 115.913 100.39C115.841 97.3922 111.658 96.1147 108.959 97.4228C106.261 98.7308 104.615 101.465 102.606 103.69C98.2236 108.542 91.5177 111.196 85.0019 110.655C78.4861 110.115 72.309 106.393 68.7862 100.885C67.1936 98.3943 66.0141 95.4579 63.5453 93.8316C61.0766 92.2049 56.7583 93.1264 56.5671 96.0765C56.5002 97.1107 56.9602 98.099 57.4284 99.0241C59.9348 103.977 62.9966 108.649 66.5373 112.924C57.0765 113.095 48.5627 105.416 46.1236 96.2738C41.6441 79.4819 55.207 57.4159 74.0011 59.4981C82.295 60.417 89.8261 66.3708 92.6345 74.2293C93.3479 76.2263 93.8987 78.4982 95.6463 79.6991C98.522 81.6762 102.772 79.0352 103.534 75.6291C104.295 72.2236 102.652 68.7528 100.715 65.8496C98.2333 62.131 95.1858 58.7903 91.7099 55.9783C89.768 54.4077 87.5833 52.8569 86.7516 50.5014C86.1967 48.9307 86.3309 47.2024 86.6205 45.5619C88.9046 32.6227 101.524 22.3393 114.658 22.7147C122.472 22.938 130.706 27.341 132.958 34.8272C135.58 43.5425 130.004 54.6183 136.216 61.2697C137.673 62.8302 140.334 63.8108 141.852 62.309C143.508 60.672 142.284 57.9402 141.474 55.7565C139.314 49.9266 141.175 42.9958 145.521 38.5489C149.866 34.1021 156.365 32.076 162.563 32.5707C165.323 32.791 168.13 33.5177 170.301 35.2357C176.369 40.0375 174.756 49.7349 171.076 56.5424C167.397 63.3498 162.075 69.9732 162.38 77.7057C162.455 79.6124 163.163 81.8246 164.986 82.3902C166.673 82.9134 168.478 81.6645 169.29 80.0954C170.101 78.5257 170.207 76.7036 170.5 74.9611C171.109 71.3378 172.604 67.8665 174.819 64.9353C176.268 63.0173 178.029 61.311 179.147 59.1829C180.289 57.0069 180.687 54.5316 181.212 52.1302C183.783 40.3782 189.968 29.2875 199.267 21.6565C208.567 14.026 221.043 10.0947 232.929 11.954C241.755 13.3355 249.943 17.7839 256.544 23.805C268.215 34.4509 274.951 50.2459 274.795 66.0189Z" fill="white"/>
<path d="M90.9688 136.64C98.4096 143.875 108.608 148.203 118.981 148.524C129.378 148.847 139.848 145.143 147.728 138.354C154.282 147.881 165.446 154.073 176.997 154.592C188.384 155.104 200.416 150.041 207.554 141.044C210.734 163.692 208.648 188.103 209.703 211.28C210.876 237.022 213.071 262.719 216.284 288.288C217.941 301.473 213.047 303.039 200.847 306.468C188.598 309.911 175.991 312.069 163.299 312.943C137.916 314.69 112.156 311.298 88.1757 302.754C86.7315 302.239 85.2368 301.67 84.1935 300.547C81.6003 297.754 83.7085 288.565 83.8467 285.08C84.1277 278.007 84.4168 270.934 84.7136 263.861C85.3072 249.716 85.9329 235.571 86.5908 221.429C87.9065 193.144 89.3491 164.864 90.9203 136.592C90.9366 136.608 90.9519 136.624 90.9688 136.64ZM174.433 226.285C174.649 239.234 174.286 252.206 175.317 265.115C176.063 274.455 177.589 283.902 181.728 292.308C183.598 296.105 186.125 299.778 189.83 301.823C193.535 303.868 198.622 303.853 201.629 300.875C203.849 298.676 204.548 295.401 204.997 292.309C205.857 286.39 206.185 280.407 206.419 274.431C207.724 241.135 206.152 207.818 204.318 174.574C204.04 169.531 202.754 163.176 198.389 159.961C194.206 156.88 187.983 157.968 183.994 161.297C180.006 164.626 177.865 169.668 176.485 174.677C172.276 189.953 173.886 206.124 174.337 221.962C174.378 223.403 174.409 224.843 174.433 226.285ZM92.465 251.686C92.6506 262.754 92.8363 273.823 93.0219 284.891C93.0948 289.264 93.1942 293.762 94.9067 297.787C96.6196 301.811 100.359 305.294 104.732 305.344C110.407 305.408 114.571 300.011 116.794 294.788C122.053 282.432 121.865 268.557 122.294 255.136C122.895 236.344 124.871 217.579 124.233 198.76C123.884 188.454 123.821 175.372 116.357 167.282C112.581 163.19 106.157 161.075 101.263 163.731C96.6696 166.224 94.8582 171.827 93.8807 176.961C91.4385 189.792 91.6486 202.963 91.8673 216.024C92.0662 227.911 92.2656 239.799 92.465 251.686ZM131.468 226.222C131.478 227.385 131.492 228.546 131.507 229.707C131.691 243.538 132.16 257.375 133.458 271.146C134.21 279.128 135.252 287.139 137.728 294.764C138.727 297.842 139.999 300.914 142.169 303.315C144.34 305.716 147.561 307.362 150.771 306.945C154.718 306.433 157.666 303.057 159.613 299.585C162.99 293.561 164.513 286.675 165.414 279.828C167.146 266.679 166.739 253.357 167.094 240.099C167.594 221.406 169.623 202.653 167.741 183.974C167.198 178.595 166.896 173.05 162.558 169.249C160.089 167.086 156.978 165.773 153.803 164.943C149.623 163.849 144.863 163.628 141.284 166.049C137.416 168.665 135.955 173.595 135.007 178.168C131.738 193.927 131.322 210.116 131.468 226.222Z" fill="#CAB99A"/>
<path d="M79.8175 119.571C79.8201 119.497 79.8226 119.423 79.8252 119.349C84.0568 125.841 83.8768 134.154 83.5489 141.895C81.2989 194.997 79.0495 248.099 76.7996 301.2C76.7129 303.254 76.6603 305.449 77.7435 307.197C78.9154 309.088 81.1347 310.008 83.222 310.776C113.356 321.867 146.27 325.311 178.046 320.697C192.099 318.657 206.096 314.999 218.45 307.997C220.697 306.723 223.021 305.182 223.968 302.78C224.738 300.826 224.459 298.637 224.175 296.556C216.865 242.839 214.293 188.478 216.499 134.311C216.591 132.06 216.889 129.45 218.795 128.25C221.169 144.318 219.656 160.604 219.536 176.772C219.414 193.281 219.739 209.796 220.613 226.283C221.477 242.6 222.878 258.889 224.912 275.101C226.178 285.193 227.728 295.396 231.831 304.703C233.799 309.168 236.409 313.9 235.235 318.636C234.255 322.588 230.835 325.447 227.315 327.493C220.559 331.421 212.856 333.383 205.204 334.972C162.178 343.909 117.012 342.369 74.695 330.52C70.216 329.266 65.1577 327.332 63.6951 322.916C61.9618 317.685 66.2699 312.645 69.0033 307.859C73.5705 299.861 73.9973 290.241 74.311 281.036C76.1468 227.214 77.9822 173.392 79.8175 119.571Z" fill="white"/>
<path d="M65.3527 285.865C55.8796 281.385 46.2684 276.815 38.4048 269.888C29.2103 261.79 22.8801 250.83 18.7224 239.305C10.2902 215.93 10.5075 189.542 19.3237 166.309C23.0933 156.375 28.4989 146.866 36.3579 139.716C38.1728 138.065 40.1647 136.517 42.5003 135.766C44.6366 135.079 46.9263 135.1 49.1701 135.127C55.6777 135.206 62.1858 135.285 68.6934 135.364C68.6985 139.295 66.008 162.473 68.1498 163.945C64.7254 161.697 61.301 159.448 57.8766 157.199C54.874 155.228 51.6878 153.192 48.1022 152.98C41.0036 152.559 35.5807 159.276 32.7825 165.813C27.2209 178.808 26.8277 193.416 27.7967 207.517C28.6519 219.966 30.603 232.656 36.6317 243.58C42.6605 254.504 53.4431 263.452 65.8825 264.429C65.7061 271.575 65.5291 278.72 65.3527 285.865Z" fill="white"/>
<path d="M190.859 169.815C194.46 170.409 196.608 179.802 197.385 182.645C199.095 188.909 199.115 194.892 199.223 201.358C199.339 208.42 199.447 215.483 199.547 222.545C199.8 240.406 200.42 258.305 200.42 276.136C200.42 281.835 199.108 287.506 196.385 292.516C196.073 293.089 195.718 293.68 195.15 294.001C194.021 294.639 193.119 293.615 192.574 292.746C190.696 289.753 189.747 286.283 188.911 282.85C185.309 268.042 183.37 252.862 182.449 237.65C181.758 226.222 181.64 214.748 182.408 203.322C182.803 197.455 183.426 191.599 184.336 185.788C185.087 180.994 185.602 175.785 188.22 171.578C188.807 170.634 189.722 169.655 190.823 169.81C190.836 169.812 190.847 169.813 190.859 169.815Z" fill="#CAB99A"/>
<path d="M106.13 298.375C105.676 298.375 105.208 297.998 104.835 297.139C101.7 289.917 100.977 281.744 100.287 273.891C99.5257 265.218 99.4084 256.474 99.5435 247.768C99.7332 235.546 100.003 223.275 100.224 211.038C100.447 198.701 101.654 186.115 106.386 174.903C108.811 169.159 110.964 173.723 111.685 177.064C113.362 184.833 113.624 193.156 114.195 201.117C114.808 209.673 115.226 218.247 115.348 226.829C115.59 243.869 114.672 260.98 111.781 277.749C110.685 284.11 109.307 290.413 107.614 296.617C107.316 297.707 106.736 298.376 106.13 298.375Z" fill="#CAB99A"/>
<path d="M160.734 232.205C160.675 242.835 159.914 253.461 158.449 263.99C157.163 273.232 155.226 282.637 151.506 291.233C151.159 292.034 150.754 292.881 149.995 293.311C144.423 296.468 140.815 269.444 140.454 266.42C137.828 244.429 137.973 222.11 140.883 200.156C141.746 193.643 142.862 187.121 145.077 180.936C146.055 178.206 148.021 175.069 150.901 175.41C156.603 176.086 156.844 187.488 157.51 191.515C158.83 199.491 159.745 207.533 160.256 215.601C160.605 221.128 160.764 226.666 160.734 232.205Z" fill="#CAB99A"/>
</svg>
