<svg width="246" height="352" viewBox="0 0 246 352" fill="none" xmlns="http://www.w3.org/2000/svg">
<path d="M244.798 80.3849C244.783 78.227 244.829 76.0691 244.773 73.9112C244.671 69.8898 244.854 65.8685 244.173 61.8523C243.565 58.2575 243.397 54.5865 242.564 51.0171C241.94 48.3159 241.28 45.6401 239.847 43.2283C239.289 42.294 238.888 41.2836 238.624 40.2326C238.106 38.1915 236.979 36.4601 235.75 34.7998C235.004 33.7944 234.024 33.1344 232.749 32.8602C229.261 32.0986 226.016 32.6063 223.143 34.7536C220.295 36.8911 217.593 39.207 215.059 41.7299C211.947 44.8373 208.977 48.097 205.382 50.7068C198.131 55.9721 191.835 62.2377 186.189 69.1887C183.356 72.6768 180.558 76.2006 177.339 79.3689C174.673 81.999 171.946 84.5885 169.651 87.5791C169.032 88.3915 168.255 89.1023 167.483 89.7878C165.528 91.5192 163.147 92.4483 160.614 92.6616C156.846 92.9815 153.114 92.5854 149.555 91.1739C147.9 90.5189 146.199 89.9553 144.594 89.1937C139.171 86.6093 133.622 84.3499 127.971 82.3138C120.045 79.4552 111.952 77.6984 103.477 78.1859C102.574 78.2366 102.106 77.8964 101.721 77.145C99.3596 72.5601 97.0392 67.9548 94.5766 63.4258C93.1194 60.7449 92.1852 57.9371 91.713 54.9516C91.3169 52.4535 91.0326 49.9249 90.4538 47.4725C89.0118 41.3644 87.4479 35.2867 85.8841 29.209C85.0666 26.0356 84.0207 22.9181 83.5028 19.6685C83.2184 17.8965 82.5939 16.226 82.1319 14.5098C80.9387 10.0468 78.1258 6.69569 74.7087 3.82186C72.3477 1.83659 69.55 0.57231 66.4121 0.983581C61.0352 1.69442 56.7397 4.34484 53.6729 8.8739C52.825 10.1331 52.3781 11.5751 51.845 12.9714C49.4688 19.1963 46.7523 25.2638 43.8074 31.2298C42.2334 34.4235 40.6036 37.5715 39.4916 40.9836C37.415 47.3557 36.0796 53.8091 35.9628 60.5418C35.8562 66.7617 35.7089 66.7566 33.221 72.423C33.1093 72.6819 32.9773 72.9307 32.8707 73.1897C30.7432 78.2163 29.0372 83.3648 28.0725 88.7469C27.3769 92.6413 27.1179 96.5611 27.0672 100.501C27.0519 101.725 27.0062 102.923 26.5899 104.106C25.8029 106.33 25.3256 108.615 25.3764 110.996C25.3916 111.646 25.3815 112.306 24.9854 112.89C23.777 114.672 22.6752 116.536 21.3601 118.232C19.1311 121.1 17.7349 124.35 16.6788 127.772C16.237 129.209 15.8257 130.656 15.5262 132.123C14.5005 137.135 14.1502 142.151 15.6023 147.153C15.8105 147.879 15.9578 148.589 15.8105 149.361C15.3434 151.829 14.9017 154.307 14.465 156.784C14.3482 157.429 14.2111 158.501 14.1857 159.156C14.0131 163.243 12.9976 167.244 12.9367 171.357C12.9164 172.697 12.561 174.078 11.6216 175.276C7.0621 181.101 3.56375 187.452 2.16746 194.825C1.40077 198.876 0.471602 202.877 0.578228 207.057C0.669621 210.575 1.35507 213.952 2.5178 217.222C4.00041 221.375 5.51348 225.843 8.98645 228.717C13.0332 232.063 19.6541 234.378 21.9085 239.4C22.3553 240.401 23.1372 241.283 23.8836 242.117C27.453 246.113 31.8501 248.951 36.7803 250.926C40.0857 252.251 43.4723 253.378 46.8641 254.46C48.2299 254.897 48.9103 255.638 49.3774 257.232C50.1035 259.705 51.2662 262.021 52.6472 264.199C53.2515 265.153 53.4647 265.864 52.7132 266.585C51.7993 267.463 51.4134 268.728 51.7079 269.961C51.9669 271.033 51.6013 271.617 50.7026 272.206C47.5241 274.297 45.4982 277.273 44.3812 280.893C43.0103 285.32 42.9747 289.748 44.3406 294.181C44.6401 295.161 45.1174 296.095 45.1479 297.155C45.1987 298.705 46.0415 299.766 47.3109 300.562C48.3365 301.217 49.3317 301.928 50.3624 302.579C51.1088 303.051 51.2865 303.629 51.0377 304.488C50.271 307.123 50.1441 309.839 50.1847 312.566C50.1948 313.226 50.1948 313.881 50.1898 314.536C50.1847 315.155 49.8953 315.607 49.3621 315.902C48.9509 316.13 48.5193 316.313 48.1131 316.551C42.203 320.004 39.0347 325.183 38.994 331.997C38.9636 338.222 41.746 343.233 46.732 346.9C51.8704 350.677 57.6231 351.682 63.8227 350.159C67.58 349.24 70.9057 347.428 73.3327 344.488C77.8313 339.04 79.583 330.626 74.7645 323.564C74.0232 322.472 73.2261 321.436 72.2664 320.527C71.581 319.883 71.3119 319.156 71.7841 318.268C72.6168 316.674 73.1194 314.993 73.4241 313.211C73.7186 311.5 74.1806 311.256 76.0085 311.632C78.3035 312.109 80.6188 312.434 82.9341 312.8C88.3162 313.653 93.7389 314.024 99.1666 314.206C107.697 314.486 116.217 314.196 124.716 313.263C130.494 312.622 136.247 311.81 141.944 310.699C152.739 308.596 163.275 305.555 173.383 301.183C179.847 298.391 186.052 295.08 191.693 290.8C193.419 289.485 194.806 287.779 196.562 286.555C198.984 284.865 200.411 282.432 201.685 279.981C202.538 278.341 203.28 276.599 204.052 274.898C205.59 271.491 205.702 268.089 204.412 264.514C203.097 260.853 200.893 257.924 197.923 255.522C197.395 255.091 196.963 254.689 196.796 253.999C196.217 251.582 194.399 250.16 192.358 249.216C190.85 248.52 190.622 247.597 190.81 246.18C190.942 245.16 191.089 244.144 191.18 243.118C191.475 239.722 191.677 236.32 191.936 232.923C191.982 232.364 192.135 231.816 192.231 231.263C192.84 227.653 193.967 224.159 194.678 220.58C196.049 213.659 198.004 206.921 200.334 200.28C200.649 199.382 201.081 198.584 201.66 197.823C203.071 195.954 204.447 194.055 205.772 192.126C208.732 187.79 210.454 182.976 211.251 177.802C211.398 176.868 211.561 175.944 211.327 175.015C211.124 174.213 211.403 173.583 211.809 172.908C212.896 171.105 214.389 169.648 216.013 168.409C217.963 166.916 219.643 165.155 221.436 163.509C222.411 162.616 223.168 161.56 223.858 160.422C225.478 157.747 226.503 154.832 227.29 151.836C228.504 147.186 230.078 142.692 232.51 138.529C232.698 138.209 232.85 137.863 233.043 137.538C237.506 130.014 239.908 121.722 241.924 113.304C243.077 108.475 243.772 103.56 244.208 98.62C244.381 96.6652 244.843 94.756 244.818 92.7708C244.758 88.6408 244.798 84.5128 244.798 80.3849ZM67.0022 311.799C66.9565 312.037 66.86 312.783 66.6569 313.5C65.9359 316.018 65.7379 316.13 63.1382 315.48C61.7724 315.14 60.4066 314.88 58.99 314.805C57.8831 314.744 57.5835 314.327 57.4566 313.18C57.2535 311.347 57.5327 309.636 58.5939 308.082C59.1626 307.249 59.5332 307.067 60.4624 307.361C62.1583 307.904 63.8491 308.463 65.5297 309.052C67.0174 309.574 67.0885 309.712 67.0022 311.799Z" fill="#222222"/>
<path d="M192.471 278.28C191.977 278.016 191.438 277.838 190.927 277.603C190.069 277.206 189.32 276.658 188.618 276.02C185.178 272.897 184.234 266.873 187.198 262.338C187.708 261.557 188.28 260.816 188.823 260.057C188.822 260.057 188.822 260.056 188.821 260.055H188.821C188.716 259.924 188.609 259.792 188.499 259.66C186.799 260.816 185.128 262.017 183.394 263.119C179.42 265.644 175.141 267.564 170.797 269.34C163.318 272.396 155.614 274.746 147.795 276.76C141.164 278.468 134.478 279.929 127.737 281.086C121.369 282.178 114.955 283.014 108.505 283.566C103.834 283.965 99.1661 284.376 94.4822 284.481C88.9524 284.604 83.4271 284.583 77.9004 284.075C72.6483 283.593 67.4845 282.809 62.4898 281.075C62.1354 280.953 61.7851 280.814 61.4236 280.718C60.729 280.536 60.3726 280.819 60.3538 281.554C60.3472 281.835 60.3619 282.117 60.3766 282.397C60.6549 287.829 59.2505 292.603 55.0174 296.303C54.371 296.869 54.4934 297.45 55.1976 297.895C55.9435 298.367 56.6721 298.555 57.5835 298.252C59.2159 297.711 60.9235 297.8 62.6026 298.022C64.1563 298.227 65.3621 299.129 65.4282 300.692C65.4911 302.19 66.2751 302.612 67.4332 302.916C68.6122 303.225 69.7856 303.555 70.9615 303.876C71.5861 304.047 72.2014 304.349 72.8884 304C72.8767 302.968 71.9897 302.412 71.5657 301.606C69.7018 298.066 69.6587 294.545 71.9318 291.218C75.5272 285.957 82.4853 284.863 87.5541 288.629C90.5756 290.873 91.8465 293.97 91.3728 297.747C90.9554 301.079 89.0565 303.398 86.369 305.2C85.8922 305.519 85.1403 305.569 85.0539 306.437C88.5325 307.132 91.9978 307.384 95.4505 307.528C108.595 308.072 121.691 307.582 134.696 305.395C145.634 303.554 156.364 300.951 166.717 296.921C172.32 294.741 177.764 292.214 182.854 288.99C186.506 286.678 190.001 284.149 192.94 280.94C193.988 279.796 193.828 279.008 192.471 278.28ZM128.058 303.579C124.586 306.29 120.087 306.597 116.474 304.474C113.453 302.7 111.79 299.057 112.423 295.607C113.396 290.311 118.247 286.3 123.595 286.37C128.397 286.433 132.316 290.368 132.367 295.175C132.419 298.738 130.773 301.46 128.058 303.579ZM164.102 295.176C162.561 295.597 161.024 295.836 159.401 295.469C154.861 294.442 151.348 290.55 152.769 284.601C154.075 279.129 159.178 276.352 163.011 276.534C168.026 276.209 172.072 280.409 171.882 285.553C171.729 289.674 168.285 294.035 164.102 295.176Z" fill="#CA4140"/>
<path d="M228.792 78.7539C228.756 76.8834 228.667 75.0118 228.706 73.1428C228.787 69.386 228.421 65.6648 227.89 61.9578C227.773 61.1367 227.507 60.3046 227.144 59.5582C226.431 58.0898 224.945 57.5084 223.377 57.9578C221.807 58.4071 220.512 59.3307 219.325 60.4C216.038 63.3617 213.326 66.7961 211.069 70.5965C210.936 70.7828 210.804 70.9692 210.67 71.1555C210.671 71.155 210.575 71.3322 210.575 71.3322C210.57 71.3647 210.564 71.3972 210.56 71.4302C210.586 71.3886 210.611 71.3469 210.637 71.3053C210.368 74.9936 209.252 78.4914 207.908 81.9451C206.376 85.8755 205.8 89.4104 204.581 93.4383C201.088 104.996 202.672 117.473 206.139 129.039C207.363 133.123 209.221 137.181 209.921 141.388C210.09 142.399 209.796 143.421 209.243 144.575C209.666 143.824 210.116 143.084 210.439 142.293C211.895 138.735 213.739 135.375 215.574 132.01C216.801 129.761 218.29 127.654 220.505 126.366C222.339 125.302 223.478 123.921 224.066 121.951C224.279 121.238 224.655 120.576 224.922 119.878C226.496 115.75 227.662 111.521 227.909 107.087C228.128 103.164 228.352 99.2388 228.449 95.3109C228.566 90.6331 228.501 85.9506 228.847 81.2779C228.909 80.4427 228.808 79.5957 228.792 78.7539Z" fill="#FDFDFD"/>
<path d="M62.9268 30.1834C61.1329 35.2131 60.0413 40.4459 58.9547 45.6609C58.1438 49.5548 57.3304 53.4629 57.0755 57.4268C56.8943 60.2514 56.9974 63.0866 57.1893 65.9102C57.4294 69.4476 57.827 73.0485 59.334 76.2813C60.3957 78.5591 61.9991 80.6033 64.0017 82.1864C66.3083 84.0102 69.0776 85.1897 71.8092 86.3468C72.7501 86.2747 73.6904 86.2006 74.6064 86.0102C76.5323 85.6096 77.8442 84.6327 78.4632 82.488C79.5823 78.6083 80.5175 74.7028 80.8572 70.6947C81.5239 62.8399 80.1474 55.4182 75.7072 48.7399C74.5165 46.949 73.2964 45.1775 72.1403 43.3644C69.8209 39.7259 68.4338 35.8188 68.9562 31.4243C69.1791 29.5462 68.9735 27.6883 68.8105 25.829C68.7079 24.6566 67.9301 23.9915 66.7826 23.9087C65.9093 23.8452 65.0948 24.0879 64.3632 24.5043C63.7661 24.8445 63.2406 25.275 62.779 25.7726C63.9478 26.8369 63.4533 28.7079 62.9268 30.1834Z" fill="#FDFDFD"/>
<path d="M50.6119 91.5305C50.781 91.8118 50.9699 92.0997 51.2613 92.2627C51.8264 92.5775 52.5347 92.3175 53.1308 92.0611C59.1115 89.4884 65.3938 87.5686 71.8198 86.351C71.8163 86.3495 71.8127 86.348 71.8091 86.347C69.0775 85.1898 66.3088 84.0103 64.0016 82.1865C61.9991 80.6034 60.3956 78.5592 59.3344 76.2815C57.8274 73.0482 57.4294 69.4478 57.1892 65.9103C56.9978 63.0868 56.8942 60.2515 57.076 57.4269C57.3304 53.463 58.1438 49.5549 58.9551 45.661C60.0412 40.446 61.1328 35.2132 62.9267 30.1835C63.4532 28.708 63.9478 26.837 62.7789 25.7727C62.7789 25.7727 62.7784 25.7722 62.7779 25.7717C62.7688 25.7631 62.7591 25.755 62.7495 25.7463C50.2606 39.33 46.9399 59.7072 47.3918 77.3117C47.5172 82.2144 48.063 87.2873 50.6119 91.5305Z" fill="#F2F2F0"/>
<path d="M209.922 141.388C209.221 137.182 207.363 133.123 206.139 129.039C202.673 117.474 201.089 104.996 204.582 93.4389C205.799 89.4105 206.377 85.8756 207.908 81.9451C209.253 78.492 210.368 74.9936 210.637 71.3059C210.611 71.347 210.586 71.3887 210.56 71.4303C201.713 85.447 195.153 100.429 188.665 115.631C188.422 116.2 188.176 116.789 188.182 117.407C188.192 118.381 188.818 119.225 189.405 120.001C196.159 128.944 201.333 139.077 204.615 149.793C204.806 150.416 205.005 151.068 205.46 151.534C206.712 149.877 207.388 147.914 208.423 146.113C208.736 145.569 209.01 145.062 209.244 144.575C209.796 143.421 210.09 142.399 209.922 141.388Z" fill="#F2F2F0"/>
<path d="M143.354 139.687C130.408 141.128 121.186 154.772 125.413 167.066C125.838 168.301 126.457 169.156 127.524 169.876C129.331 171.096 131.228 172.047 133.362 172.509C133.606 172.319 134.221 172.436 133.996 171.866C133.865 171.533 133.551 171.273 133.325 170.975C128.505 164.621 129.454 156.171 134.397 150.514C137.914 146.488 142.415 144.32 147.77 144.43C156.299 144.606 162.875 151.192 162.747 159.469C162.726 160.782 162.746 162.091 162.34 163.367C162.153 163.957 162.078 164.573 162.258 165.187C161.779 165.426 161.719 165.891 161.639 166.346C161.969 166.055 162.61 165.931 162.329 165.309C162.612 165.38 162.845 165.274 163.005 165.051C163.881 163.836 164.686 162.566 165.624 161.403C166.813 159.931 166.811 158.325 166.454 156.61C163.972 144.68 153.152 138.597 143.354 139.687Z" fill="#FDFDFD"/>
<path d="M162.258 165.187C162.078 164.573 162.152 163.957 162.34 163.368C162.745 162.091 162.726 160.782 162.746 159.47C162.874 151.192 156.299 144.606 147.77 144.431C142.414 144.321 137.913 146.489 134.397 150.514C129.453 156.172 128.505 164.622 133.324 170.975C133.55 171.273 133.865 171.533 133.996 171.867C134.221 172.436 133.606 172.319 133.361 172.509C135.889 173.599 138.617 173.668 141.284 174.037C141.523 174.07 141.916 174.124 141.892 173.725C141.879 173.502 141.675 173.214 141.474 173.088C140.163 172.263 139.286 171.044 138.525 169.758C137.218 167.552 136.329 165.132 136.51 162.571C136.718 159.634 137.85 157.01 139.842 154.709C143.176 150.86 151.326 148.494 156.82 154.404C159.735 157.541 160.839 161.288 160.128 165.541C160.011 166.24 159.63 166.931 160.107 167.841C160.755 167.435 161.375 167.108 161.639 166.346C161.718 165.892 161.778 165.426 162.258 165.187Z" fill="#CAB99A"/>
<path d="M66.5307 326.489C62.1199 328.473 58.1687 327.565 54.5901 324.5C54.3068 324.257 54.0656 323.967 53.7919 323.713C52.9689 322.947 52.7465 322.912 51.858 323.463C47.0146 326.467 45.563 332.553 48.9506 337.678C51.6305 341.732 55.5868 343.541 60.4693 343.29C66.4992 342.981 69.9859 338.056 69.9427 333.161C70.1037 330.974 69.4162 328.789 67.9757 326.835C67.6005 326.326 67.1654 326.204 66.5307 326.489Z" fill="#CAB99A"/>
<path d="M30.4068 143.257C27.6655 135.144 31.4665 126.245 38.1255 122.316C42.3591 119.818 49.6441 119.954 53.8132 123.962C56.0239 126.087 57.7264 128.461 58.6434 131.395C58.8566 132.076 58.9526 132.92 59.961 132.96C60.3606 131.477 60.2773 129.991 59.9833 128.507C59.0445 123.773 56.2951 120.352 52.1433 118.076C47.5817 115.576 42.7099 115.029 37.7193 116.498C31.5238 118.32 27.2613 122.176 25.6269 128.607C25.4192 129.424 25.1872 130.236 25.0029 131.058C23.8909 136.019 25.206 140.485 27.731 144.827C28.7825 144.421 29.7178 144.065 30.4068 143.257Z" fill="#FDFDFD"/>
<path d="M58.6435 131.395C57.7265 128.461 56.024 126.087 53.8128 123.961C49.6442 119.953 42.3591 119.818 38.1256 122.315C31.466 126.245 27.6656 135.144 30.4069 143.257C30.5907 143.231 30.7953 143.25 30.9547 143.173C32.8547 142.26 33.0131 142.267 32.7973 140.296C32.5171 137.732 33.1385 135.264 34.0383 132.888C35.4244 129.226 37.9017 126.457 41.4528 124.846C45.7321 122.905 49.789 123.478 53.527 126.402C55.6062 128.029 56.975 130.053 57.5407 132.628C57.6437 133.096 57.8219 133.605 58.351 133.637C58.9542 133.674 59.7153 133.864 59.9606 132.96C58.9527 132.92 58.8562 132.076 58.6435 131.395Z" fill="#CAB99A"/>
<path d="M151.817 155.268C149.851 155.793 148.267 156.939 147.327 158.821C145.664 162.153 147.608 165.833 151.275 166.069C155.054 166.313 157.557 163.165 157.585 160.28C157.578 157.192 154.581 154.53 151.817 155.268Z" fill="#FDFDFD"/>
<path d="M45.246 128.503C43.5679 129.467 42.7027 130.933 42.72 132.889C42.7367 134.405 43.3978 135.582 44.5849 136.491C45.1373 136.915 45.7101 137.106 46.4113 136.858C47.8208 136.36 49.2419 135.896 50.6601 135.422C52.134 134.929 52.6489 133.797 52.6169 132.367C52.5788 130.653 51.8472 129.277 50.327 128.433C48.6408 127.498 46.9129 127.545 45.246 128.503Z" fill="#FDFDFD"/>
<path d="M191.86 263.75C191.654 264.157 191.502 264.616 191.439 265.067C191.257 266.362 191.208 267.677 191.5 268.953C191.684 269.755 192.001 270.553 192.402 271.274C193.07 272.473 194.062 273.366 195.54 273.162C196.867 272.978 197.633 271.988 198.025 270.781C198.311 269.906 198.426 268.975 198.566 268.307C198.379 266.268 198.071 264.535 196.851 263.124C195.263 261.287 192.961 261.573 191.86 263.75Z" fill="#CAB99A"/>
<path d="M50.6399 279.878C50.1266 280.248 49.6488 280.749 49.3335 281.294C48.2845 283.11 47.8143 285.091 48.0413 287.188C48.1103 287.824 48.3063 288.469 48.5663 289.057C49.3132 290.747 51.5412 290.786 52.4201 289.432C53.5198 287.737 54.1332 285.943 54.1784 283.745C54.1652 282.822 54.2154 281.704 53.6691 280.667C53.0258 279.444 51.7671 279.067 50.6399 279.878Z" fill="#CAB99A"/>
<path d="M82.584 293.194C81.3198 292.733 80.0123 292.774 78.8059 293.469C77.5061 294.217 76.6704 295.292 76.7902 296.863C76.9019 298.33 78.0662 299.498 79.6808 299.88C80.0403 299.965 80.4114 300.003 80.6511 300.042C81.7178 299.931 82.6242 299.756 83.3975 299.164C84.4206 298.379 85.0674 297.383 84.9319 296.06C84.7846 294.618 83.8864 293.668 82.584 293.194Z" fill="#CAB99A"/>
<path d="M123.655 293.018C121.897 292.842 120.12 293.835 119.277 295.463C118.294 297.361 119.37 299.147 121.487 299.13C123.207 299.117 125.008 297.859 125.616 296.248C126.238 294.597 125.385 293.191 123.655 293.018Z" fill="#CAB99A"/>
<path d="M163.434 282.917C161.404 282.687 159.12 284.663 159.011 286.743C158.956 287.804 159.722 288.735 160.796 288.911C162.893 289.254 165.407 287.089 165.373 284.968C165.356 283.945 164.499 283.039 163.434 282.917Z" fill="#CAB99A"/>
<path d="M13.4722 223.52C13.9698 223.958 14.5791 224.38 15.2259 224.399C15.9987 224.377 16.5816 223.748 16.8076 222.569C16.8751 222.215 16.7852 221.831 16.768 221.461C16.8279 220.245 16.1358 218.991 16.1323 217.776C16.118 212.983 16.5547 208.585 17.2589 203.85C17.6753 201.051 19.067 197.953 20.867 195.685C23.623 192.214 26.7938 189.189 30.6872 186.959C36.5405 183.605 42.8182 181.603 49.5788 180.794C50.2521 178.974 50.8421 177.093 51.6443 175.307C52.2338 173.993 52.2257 172.8 51.6352 171.547C51.4833 171.225 51.3777 170.878 51.2036 170.571C50.6933 169.671 50.9314 168.523 51.7067 167.839C53.0482 166.656 54.117 165.214 54.971 163.632C55.4625 162.721 55.8662 161.779 55.8911 160.711C55.9367 158.743 54.9279 157.71 52.9949 157.758C51.725 157.79 50.5923 158.23 49.6418 159.031C48.6415 159.875 47.7266 160.819 46.7776 161.724C46.0759 162.393 45.4519 162.423 44.8614 161.746C41.0442 157.374 42.4079 151.398 45.7286 148.947C48.6643 146.78 51.8768 145.366 55.4935 144.992C59.4422 144.583 63.1807 145.275 66.3876 147.766C67.4133 148.563 68.4221 148.889 69.7098 148.862C73.7814 148.773 77.4523 150.088 80.7638 152.397C82.9527 153.923 84.706 155.856 85.7717 158.347C86.6466 160.392 86.9375 162.466 86.2353 164.646C85.0284 168.394 80.3434 171.641 76.4303 171.372C75.7885 171.329 75.5412 170.83 75.4122 170.161C75.199 169.056 74.7476 168.012 74.2063 167.025C73.4788 165.697 72.8954 164.273 71.5199 163.57C70.0754 162.833 68.739 163.267 67.9769 164.708C67.4742 165.658 67.4315 166.696 67.398 167.72C67.3396 169.505 67.492 171.281 67.8723 173.032C67.9819 173.536 67.8327 173.941 67.3721 174.221C66.8121 174.562 66.3064 175.066 65.7011 175.249C62.6156 176.182 61.7966 178.667 61.2224 181.42C61.036 182.312 61.2315 182.836 61.9601 183.286C63.7641 184.4 64.9832 186.059 66.1084 187.803C68.0454 190.807 69.6773 193.982 70.9365 197.313C73.0629 202.939 75.8636 208.242 78.4897 213.629C79.104 214.889 79.8413 216.096 80.5993 217.279C83.4848 221.781 87.2528 225.287 92.3414 227.321C94.0662 228.01 95.9164 228.347 97.7742 228.339C101.473 228.321 105.129 228.023 108.744 227.173C110.121 226.85 111.496 226.543 112.747 225.9C115.162 224.659 117.617 223.465 119.904 222.012C123.671 219.618 127.647 219.406 131.794 220.497C133.247 220.88 134.578 221.608 135.646 222.727C137.197 224.352 137.595 226.504 136.649 228.435C135.778 230.209 134.229 231.252 132.528 232.112C131.176 232.797 129.809 232.674 128.431 232.205C127.81 231.994 127.166 231.838 126.57 231.574C125.394 231.052 124.232 231.093 123.001 231.38C120.539 231.957 118.083 232.536 115.673 233.316C113.536 234.007 111.386 234.681 109.206 235.214C103.984 236.493 98.7943 236.344 93.7174 234.494C87.8499 232.356 82.5653 229.184 77.7524 225.223C75.7748 223.595 74.2338 221.611 73.1015 219.292C70.8375 214.657 68.5663 210.032 67.4894 204.932C67.2772 203.927 66.8685 202.965 66.6176 201.966C65.5519 197.73 63.1853 194.311 60.0586 191.35C58.6953 190.059 56.9979 189.16 55.1645 188.758C52.117 188.088 49.032 187.887 45.9378 188.294C44.4694 188.487 42.9588 188.651 41.6113 189.385C38.1114 189.883 35.0005 191.3 32.1937 193.413C28.9903 195.824 26.5654 198.892 24.8548 202.494C21.2975 209.984 20.6959 217.754 22.9335 225.726C24.5126 231.351 27.4042 236.193 31.8205 240.068C35.0071 242.863 38.5892 244.72 42.9619 244.644C43.3351 244.637 43.7088 244.707 44.082 244.711C49.3935 244.781 54.2059 243.314 58.4287 240.039C58.672 239.911 58.9431 239.817 59.1543 239.648L68.2175 231.429C70.9086 228.697 73.5585 232.286 72.213 233.916C71.1716 236.359 67.9819 240.04 66.1571 241.957C64.2404 243.97 62.0936 245.645 59.7433 247.018C58.7491 247.637 57.7144 248.18 56.6278 248.605C56.3399 248.733 56.0546 248.864 55.7616 248.984C55.1553 249.232 54.5049 249.406 53.9515 249.741C52.9568 250.343 52.7298 251.568 53.5433 252.355C55.7611 254.503 56.9761 257.238 58.2043 259.974C58.377 260.358 58.5425 260.745 58.7055 261.133C59.2635 262.392 59.7514 263.682 60.1591 265.003C60.7801 266.844 61.3203 268.713 61.8078 270.598C62.085 271.668 62.6913 272.262 63.6839 272.739C65.8855 273.795 68.313 274.28 70.7212 274.684C74.7862 275.365 78.8928 275.927 82.9999 276.274C88.4546 276.766 93.9357 276.958 99.4117 276.871C99.6783 276.867 99.9469 276.871 100.213 276.856C102.204 276.744 104.194 276.602 106.183 276.43C112.534 275.882 118.847 275.027 125.129 273.908C138.542 271.519 151.643 268.027 164.314 263.001C170.068 260.718 175.665 258.092 180.908 254.767C181.7 254.265 182.478 253.743 183.255 253.219C183.652 252.952 184.04 252.624 184.006 252.109C183.89 250.391 184.632 248.825 184.813 247.149C185.429 241.42 185.093 235.721 184.541 230.021C184.451 229.093 184.227 228.172 183.996 227.266C183.807 226.524 182.962 226.35 182.48 226.97C181.619 228.077 180.878 229.279 179.996 230.369C176.625 234.534 172.917 238.381 168.868 241.892C162.88 247.085 156.35 251.427 148.961 254.391C144.857 256.038 140.661 257.331 136.204 257.566C135.812 257.586 135.419 257.61 135.026 257.633C133.857 257.756 132.703 257.821 131.562 257.831C130.956 257.86 130.349 257.885 129.744 257.9C124.988 258.014 120.412 257.208 116.133 255.035C115.298 254.612 114.456 254.189 113.81 253.478C112.812 252.38 112.651 250.764 113.422 249.582C113.591 249.323 113.798 249.098 114.028 248.906C114.242 248.644 114.527 248.469 114.862 248.412C115.474 248.174 116.17 248.13 116.865 248.336C117.576 248.545 118.257 248.882 118.919 249.225C120.598 250.094 122.366 250.695 124.222 251.022C128.596 251.794 132.895 251.404 137.133 250.292C138.022 250.059 139.365 249.432 140.096 248.876C144.08 245.84 146.433 241.84 147.566 237.043C148.921 231.308 148.261 225.872 145.31 220.762C141.796 214.677 137.021 209.637 131.77 205.075C128.078 201.867 124.517 198.557 121.317 194.866C119.904 193.236 118.672 191.475 117.488 189.663C114.104 184.482 112.082 178.752 110.638 172.815C109.467 167.994 108.578 163.104 107.587 158.24C107.232 156.495 106.904 154.742 106.639 152.981C106.246 150.372 106.096 147.746 106.693 145.149C107.412 142.027 108.472 139.008 110.187 136.295C111.799 133.746 113.647 131.463 115.921 129.603C117.374 128.195 118.89 127.274 120.302 126.845C124.573 124.855 128.764 122.715 133.284 121.333C133.855 121.158 134.771 120.827 135.31 120.568C138.366 119.096 141.233 117.341 143.667 114.941C145.451 113.182 145.905 111.06 145.189 108.733C144.693 107.121 143.967 105.572 142.776 104.328C139.827 101.248 136.416 98.782 132.496 97.1181C128.086 95.2471 123.477 93.9874 118.75 93.2151C114.192 92.4702 109.619 92.1498 105.049 93.1511C103.495 93.4913 101.961 93.9396 100.395 94.2103C91.1314 95.8137 83.9159 100.67 78.4541 108.179C76.2673 111.186 73.9936 114.178 72.6222 117.699C72.476 118.076 72.1779 118.66 71.9586 119C69.8723 122.234 68.6755 125.936 66.5714 129.169C65.6905 130.523 66.4836 132.724 68.5105 132.416C68.7862 132.375 69.0746 132.427 69.3538 132.401C71.5681 132.193 73.5945 132.838 75.6169 133.656C82.5349 136.452 88.2866 140.812 93.2508 146.349C98.1175 151.777 100.197 158.264 100.748 165.329C100.988 168.407 100.924 171.521 100.806 174.611C100.632 179.198 100.148 183.778 100.766 188.368C101.003 190.131 101.144 191.909 101.418 193.666C101.719 195.59 102.661 197.174 104.189 198.411C104.842 198.939 105.495 199.49 106.043 200.122C106.853 201.057 106.931 202.159 106.451 203.287C105.971 204.412 105.122 205.104 103.891 205.195C101.702 205.356 99.8194 204.724 98.4292 202.926C97.5001 201.724 96.8593 200.371 96.383 198.942C95.5153 196.339 95.2056 193.636 95.1081 190.913C94.9872 187.538 94.876 184.161 94.8755 180.785C94.875 175.747 94.7806 170.723 93.7057 165.772C93.5986 165.278 93.5351 164.777 93.5021 164.274C93.298 161.151 92.3957 158.212 91.3015 155.299C90.1652 152.271 88.1972 149.989 85.5437 148.237C84.6846 147.669 83.7611 147.19 82.9436 146.569C77.5493 142.471 71.4077 140.091 64.8177 138.733C63.102 138.38 61.33 138.36 59.6047 138.662C54.999 139.466 50.6867 141.135 46.4902 143.136C43.6692 144.482 41.2564 146.417 38.8507 148.364C34.3161 152.032 30.4349 156.246 27.6265 161.364C27.0812 162.357 26.1805 163.98 25.6012 164.955C24.0713 167.527 22.6796 170.159 22.0048 173.101C21.8632 173.34 21.6271 173.568 21.5956 173.821C21.3757 175.587 20.3709 176.889 19.227 178.161C18.6151 178.841 18.0297 179.547 17.4747 180.276C15.0894 184.411 12.9228 188.755 11.1031 192.938C10.7431 193.765 10.4054 194.605 10.0891 195.456C9.16755 198.153 8.45367 200.924 8.07997 203.81C7.95811 204.753 7.78091 205.696 7.6362 206.639C7.49353 209.325 7.71338 212.008 8.38208 214.626C9.22493 217.313 10.5187 219.823 12.1688 222.181C12.5735 222.652 13.0015 223.106 13.4722 223.52Z" fill="#F2F2F0"/>
<path d="M162.285 165.301C162.3 165.306 162.314 165.303 162.328 165.307C162.309 165.265 162.298 165.227 162.27 165.179L162.285 165.301Z" fill="#222222"/>
<path d="M121.487 299.13C123.206 299.117 125.008 297.859 125.616 296.248C126.238 294.597 125.385 293.191 123.655 293.018C121.897 292.842 120.12 293.835 119.277 295.464C118.294 297.362 119.37 299.147 121.487 299.13Z" fill="#CAB99A"/>
</svg>
