<svg width="208" height="351" viewBox="0 0 208 351" fill="none" xmlns="http://www.w3.org/2000/svg">
<path d="M207.274 203.495C206.829 207.578 205.72 211.397 204.038 215.098C201.436 220.827 199.444 226.828 196.371 232.351C195.792 233.395 195.557 234.563 195.373 235.754C193.593 247.504 191.384 259.162 188.076 270.601C186.79 275.048 185.963 279.625 184.753 284.095C183.816 287.56 184.009 290.907 185.1 294.264C185.469 295.393 185.924 296.512 186.143 297.671C187.459 304.623 186.261 311.145 182.525 317.156C181.906 318.154 181.085 319.057 180.234 319.871C177.139 322.839 173.91 325.649 169.987 327.504C168.442 328.238 167.257 329.35 166.168 330.639C164.716 332.363 163.155 333.996 161.669 335.698C158.479 339.342 154.549 341.954 150.197 343.989C148.463 344.801 146.621 345.236 144.775 345.707C141.071 346.649 137.335 347.245 133.507 347.121C132.06 347.075 130.683 347.278 129.305 347.736C126.256 348.757 123.111 349.365 119.911 349.709C119.322 349.774 118.711 349.774 118.148 349.934C113.488 351.289 108.966 350.553 104.5 349.07C100.557 347.758 96.6274 346.41 92.7109 345.027C91.1141 344.46 89.5927 344.303 87.8552 344.582C82.7934 345.387 77.6988 345.193 72.6041 344.643C67.4933 344.094 62.5622 342.896 57.7723 341.044C55.891 340.318 53.9109 339.857 52.0165 339.166C46.1432 337.016 41.4677 333.319 38.0812 328.064C37.5117 327.177 36.7102 326.83 35.8987 326.356C31.3898 323.715 26.8779 321.062 23.0788 317.423C20.1469 314.616 17.5558 311.52 16.0471 307.673C15.7692 306.969 15.311 306.488 14.7186 306.059C10.1085 302.712 8.35478 297.925 8.07683 292.484C7.94267 289.883 7.89356 287.265 8.54463 284.683C9.91208 279.262 12.9619 275.031 17.4282 271.755C20.7722 269.305 24.3779 267.22 27.4601 264.39C28.5825 263.359 29.3414 262.296 29.4857 260.788C29.5282 260.316 29.5378 259.8 29.7439 259.394C31.125 256.645 30.5489 253.841 30.0942 251.024C28.9683 244.091 27.3325 237.292 25.1697 230.607C23.416 225.182 21.8845 219.685 20.1996 214.237C19.6402 212.424 18.9071 210.667 18.2722 208.878C16.162 202.945 14.0053 197.029 11.9802 191.071C11.2572 188.937 10.9165 186.693 10.8381 184.412C10.7333 181.304 10.0888 178.293 9.07773 175.349C8.3811 173.33 7.83129 171.259 7.20604 169.214C5.80922 164.62 5.46901 159.869 5.4199 155.121C5.34446 148.221 4.90602 141.369 4.00941 134.52C3.14874 127.927 2.56653 121.298 2.31795 114.643C2.20961 111.803 1.69624 108.982 1.42791 106.146C0.933788 100.946 0.433084 95.7504 0.81279 90.5119C0.949991 88.6175 0.914045 86.7098 0.940371 84.8088C1.03504 77.8753 2.03949 71.0922 4.22863 64.496C5.05993 61.9894 6.39498 59.7613 7.69712 57.4871C10.6715 52.3008 17.7517 52.1439 21.7078 55.3769C23.1836 56.5809 24.4857 57.9716 25.6309 59.4995C27.8529 62.4638 29.672 65.6675 31.1083 69.0702C33.8305 75.5292 36.4449 82.0339 39.1576 88.496C42.0732 95.4426 43.7743 102.713 45.0734 110.101C46.451 117.938 47.58 125.814 49.2289 133.605C50.1453 137.949 51.6337 142.062 53.6462 145.989C55.8971 150.373 57.468 154.945 57.7688 159.895C57.8639 161.426 58.4988 162.644 59.6405 163.599C65.1766 168.222 67.4508 174.521 68.5828 181.33C69.2242 185.191 69.5255 189.108 69.9771 192.998C70.0029 193.234 69.9963 193.476 70.0388 193.708C70.9881 198.606 71.8776 203.518 73.5337 208.246C73.8445 209.129 74.3154 209.96 74.7639 210.791C74.852 210.958 75.1694 211.112 75.3593 211.089C75.5491 211.066 75.742 210.834 75.8696 210.651C76.305 210.032 76.3799 209.326 76.2589 208.603C75.778 205.769 76.0073 202.913 75.8337 200.062C75.8337 197.687 75.8403 195.308 75.8306 192.933C75.8175 188.424 74.5249 184.272 72.3064 180.381C70.4186 177.07 68.7661 173.69 67.9419 169.904C66.5116 163.337 67.3495 157.163 70.6347 151.316C71.22 150.272 71.7207 149.268 71.4559 147.965C70.5168 143.368 71.0139 138.735 71.22 134.111C71.5081 127.679 72.8988 121.403 74.0374 115.098C75.5096 106.954 75.4479 98.7997 74.813 90.5904C74.2991 83.9613 73.923 77.3159 73.7235 70.667C73.5661 65.3106 74.1159 59.9967 75.6995 54.8206C76.6781 51.6204 76.6483 48.2471 77.1753 44.9649C77.8168 40.98 78.0618 36.9257 78.8242 32.9697C79.9436 27.1425 81.1997 21.3249 83.5032 15.808C85.1689 11.8196 87.518 8.23665 90.3354 5.00408C92.7438 2.24235 95.6817 0.292178 99.618 0.514433C102.229 0.661759 104.441 1.55837 106.215 3.55411C109.902 7.70658 112.615 12.3496 114.025 17.7779C115.854 24.8126 117.022 31.9455 117.846 39.1539C118.154 41.8599 118.478 44.569 119.129 47.2391C120.006 50.822 120.409 54.4834 120.435 58.1842C120.467 63.6515 120.53 69.1193 120.651 74.5865C120.713 77.3159 121.017 80.0381 121.076 82.767C121.174 87.3999 121.122 92.0267 120.778 96.6596C120.137 105.36 120.935 113.952 122.84 122.496C124.129 128.281 124.895 134.183 125.016 140.152C125.065 142.639 125.431 145.119 125.693 147.602C125.742 148.06 125.918 148.521 126.121 148.94C126.357 149.418 126.838 149.618 127.316 149.425C127.97 149.159 128.602 148.813 129.194 148.427C133.003 145.94 137.06 146.021 141.147 147.419C143.388 148.184 145.531 149.248 147.678 150.266C149.258 151.018 150.835 151.228 152.514 150.724C155.259 149.902 158.053 149.434 160.937 149.431C162.108 149.431 163.276 149.071 164.453 148.931C170.153 148.257 175.382 151.231 177.718 156.486C178.785 158.887 179.482 161.39 179.842 164.005C180.067 165.644 180.443 167.273 180.873 168.877C181.425 170.941 182.747 172.417 184.671 173.35C185.204 173.608 185.734 173.876 186.281 174.109C188.899 175.235 190.937 176.991 192.036 179.655C192.743 181.37 193.902 182.03 195.737 182.453C199.838 183.395 202.929 185.832 204.951 189.68C207.261 194.072 207.804 198.613 207.274 203.495Z" fill="#222222"/>
<path d="M93.0403 17.6215C93.2742 16.8266 93.5466 16.0358 93.8853 15.281C94.2761 14.4097 94.832 13.6457 95.6385 13.0812C97.6104 11.7021 99.4437 11.9492 100.883 13.8477C102.41 15.8622 103.366 18.187 104.067 20.5665" fill="#FBFCFC"/>
<path d="M40.9503 313.845C37.0029 313.991 33.583 312.991 30.6613 310.379C29.2786 309.143 28.3005 307.739 27.8003 305.972C27.5092 304.944 27.2358 303.908 26.8809 302.901C26.3073 301.272 25.3332 299.841 23.6985 299.251C20.3348 298.037 19.8209 295.425 20.0067 292.387C20.0497 291.679 20.1135 290.949 20.3247 290.279C21.9685 285.061 24.6634 280.554 29.1197 277.21C30.9792 275.814 33.1198 275.062 35.2952 274.547C38.0802 273.887 40.1474 272.431 42.0884 270.351C48.7318 263.229 55.4865 256.207 62.3136 249.26C66.3628 245.139 69.3027 240.284 72.1571 235.348C72.5647 234.644 72.751 233.8 72.9732 233.003C73.6795 230.467 74.7796 228.098 76.0818 225.831C77.718 222.981 81.4007 221.266 84.5973 221.854C86.996 222.295 88.7169 223.615 89.3447 226.081C89.6666 227.345 89.935 228.624 90.2033 229.902C90.6979 232.252 91.5733 234.45 92.8678 236.469C94.6286 239.217 97.1706 241.161 99.7486 243.06C100.447 243.575 101.26 243.653 102.104 243.738C103.179 243.847 104.164 244.294 104.905 245.122C106.423 246.818 106.498 248.749 105.115 250.627C103.582 252.708 101.402 253.938 99.1077 254.935C96.712 255.977 94.2287 256.811 91.6315 257.209C88.4739 257.693 85.7815 259.094 83.4607 261.25C75.0925 269.028 67.3202 277.358 60.2252 286.316C59.2638 287.53 58.5175 288.877 57.8761 290.293C56.3087 293.752 54.9448 297.287 53.7945 300.905C53.5039 301.819 53.3409 302.696 53.7105 303.675C54.1575 304.859 53.7479 305.987 53.1855 307.086C51.894 309.613 50.082 311.488 47.3618 312.539C45.2369 313.36 43.1658 314.199 40.9503 313.845Z" fill="#FCFCFC"/>
<path d="M81.4472 138.918C81.4325 137.61 81.7216 135.393 82.1954 133.169C83.6793 126.208 84.8701 119.18 86.5124 112.259C88.2672 104.861 87.9361 97.4059 87.7781 89.9363C87.7376 88.0322 87.2683 86.1919 86.6172 84.386C85.5318 81.3747 84.5137 78.3386 83.9299 75.1749C83.5173 72.9371 83.4095 70.6817 83.6388 68.4348C83.9097 65.7743 85.3283 64.1669 87.6156 63.5143C88.578 63.2394 89.4974 63.3098 90.4168 63.5903C91.7969 64.012 93.095 64.6134 94.0316 65.7571C95.1561 67.1296 96.4957 67.3833 98.1709 66.9216C99.4402 66.5717 100.652 66.153 101.799 65.5182C102.63 65.059 103.451 64.5547 104.334 64.2206C108.299 62.7195 112.001 65.1693 111.916 69.4221C111.857 72.3757 111.581 75.3693 110.985 78.2591C109.42 85.8527 108.6 93.5106 108.72 101.246C108.786 105.511 109.195 109.769 109.735 114.017C110.439 119.549 110.876 125.116 111.424 130.668C111.541 131.849 111.584 133.04 111.755 134.213C112.329 138.169 111.707 142.025 110.819 145.855C109.885 149.889 107.313 152.533 103.509 153.936C101.968 154.504 100.304 154.771 98.6752 155.059C97.0744 155.342 95.5945 154.858 94.3238 153.882C93.2165 153.032 92.0511 152.707 90.675 152.982C86.7438 153.766 83.8834 150.965 82.7113 147.905C81.716 145.307 81.3656 142.629 81.4472 138.918Z" fill="#FCFCFC"/>
<path d="M43.0609 251.678C43.1708 248.087 42.7035 245.383 42.1886 242.71C41.0905 237.004 39.8612 231.323 38.6366 225.643C38.0857 223.087 37.1724 220.653 36.0302 218.29C32.9344 211.882 29.9205 205.436 26.8383 199.021C25.8637 196.993 24.7995 195.006 23.7333 193.023C22.8853 191.447 22.1264 189.833 21.7756 188.077C21.1311 184.849 22.2585 182.489 25.0937 180.93C25.8192 180.531 26.5675 180.169 27.2676 179.729C29.1687 178.533 31.2348 178.228 33.4199 178.516C34.0082 178.594 34.6096 178.653 35.1726 178.828C39.2436 180.088 42.5835 179.036 45.3968 175.852C46.2433 174.894 47.3759 174.137 48.4907 173.48C51.9207 171.459 55.8919 173.02 57.0386 176.817C57.4862 178.299 57.6467 179.852 57.5181 181.402C57.2234 184.955 56.8579 188.501 55.6094 191.88C55.2297 192.908 55.2652 193.829 55.5274 194.955C56.8766 200.755 59.3442 206.169 61.1329 211.813C62.4249 215.888 63.7174 219.95 64.3563 224.196C64.5001 225.151 64.6621 226.057 64.2845 226.97C63.6288 228.555 63.4972 230.19 63.8172 231.86C64.0095 232.866 63.6951 233.663 63.1175 234.502C58.0431 241.872 52.0619 248.443 45.5725 254.572C45.0748 255.042 44.6126 255.875 43.8294 255.523C42.9601 255.133 43.0204 254.184 43.0538 253.334C43.0867 252.503 43.0609 251.67 43.0609 251.678Z" fill="#FCFCFC"/>
<path d="M128.824 204.867C127.983 200.598 129.311 195.951 129.692 191.676C130.127 186.785 130.786 181.914 131.666 177.083C132.148 174.437 132.716 171.705 132.344 169.007C131.99 166.439 132.012 163.979 133.151 161.55C133.876 160.006 134.849 158.73 136.154 157.647C137.023 156.925 137.951 156.552 139.076 156.577C142.063 156.644 145.006 157.012 147.748 158.247C148.992 158.806 150.004 159.011 151.417 158.507C155.27 157.133 159.333 157.141 163.372 157.409C164.299 157.47 165.226 157.817 166.113 158.141C167.909 158.797 169.063 160.095 169.534 161.949C170.166 164.439 170.137 166.9 168.914 169.223C167.865 171.215 166.796 173.202 165.62 175.12C164.558 176.853 163.699 178.64 163.178 180.613C162.695 182.444 162.074 184.238 161.508 186.047C158.871 194.479 159.017 203.452 158.288 212.176C157.817 217.815 156.898 223.547 154.455 228.703C153.608 230.49 152.366 232.879 150.567 233.913C148.889 234.879 147.042 233.929 145.47 233.16C144.09 232.485 139.111 232.719 137.696 232.11C136.748 231.7 140.131 230.014 141.045 229.532C144.524 227.697 146.718 224.562 149.126 221.655C150.497 220 151.439 218.093 151.828 215.93C152.613 211.576 150.683 205.251 143.544 204.429C141.084 204.146 138.572 204.328 136.083 204.301C135.38 204.293 129.467 204.867 128.824 204.867Z" fill="#FBFCFC"/>
<path d="M29.0654 173.056C26.9679 173.059 25.6724 173.021 24.4077 172.597C19.5039 170.954 17.413 167.105 19.1212 162.267C19.997 159.786 20.0092 157.533 19.7677 155.006C19.0275 147.275 16.7629 139.901 14.9474 132.416C13.8569 127.921 12.8575 123.405 11.8622 118.888C11.6597 117.969 11.5812 117.006 11.5746 116.062C11.5412 111.022 16.7159 107.596 21.3022 109.608C21.8429 109.845 22.3532 110.155 22.8666 110.452C25.119 111.755 25.1646 111.751 26.8687 109.728C27.2509 109.274 27.5724 108.762 27.9941 108.35C29.799 106.591 33.025 106.887 34.1049 109.119C35.0754 111.123 36.1437 113.113 36.6023 115.363C37.3607 119.088 38.0422 122.817 38.3875 126.607C38.9813 133.113 40.1691 139.527 41.3856 145.938C41.6833 147.508 42.219 148.933 43.2462 150.107C45.4024 152.572 46.5198 155.594 47.8037 158.507C48.6492 160.426 48.4244 162.491 47.5495 164.39C46.2656 167.176 44.1074 169.192 41.5132 170.747C40.5908 171.3 39.5413 171.564 38.4528 171.583C36.3026 171.621 34.2213 172.021 32.1466 172.588C30.9017 172.928 29.5783 172.983 29.0654 173.056Z" fill="#FCFCFC"/>
<path d="M78.3813 163.701C78.5125 158.99 83.2304 155.618 87.4933 156.922C88.642 157.274 89.8429 157.778 90.7517 158.534C96.1384 163.011 102.197 162.902 108.448 161.163C110.497 160.593 112.519 160.353 114.599 160.499C118.508 160.771 120.519 163.139 120.309 167.031C120.186 169.302 119.232 171.272 118.16 173.187C117.27 174.778 116.221 176.28 115.262 177.833C114.038 179.817 113.12 181.911 112.641 184.22C111.777 188.39 110.786 192.533 109.865 196.692C109.122 200.046 108.886 203.429 109.264 206.858C109.47 208.727 109.406 208.722 107.352 208.976C105.778 209.17 104.138 209.181 102.65 209.655C98.484 210.981 94.1655 212.068 90.9461 215.347C90.459 215.843 90.0237 215.821 89.3493 215.547C86.9268 214.563 86.0514 213.042 86.137 210.29C86.3111 204.701 86.2782 199.097 86.103 193.492C85.8692 185.998 83.6517 179.118 80.3984 172.526C78.9352 169.562 78.7271 166.474 78.3813 163.701Z" fill="#FBFCFC"/>
<path d="M199.178 198.762C199.281 200.623 198.737 202.268 197.644 203.771C197.161 204.435 196.642 205.137 196.406 205.904C194.956 210.591 192.435 214.773 190.27 219.122C188.525 222.624 186.749 226.111 184.946 229.584C183.956 231.492 182.735 233.254 181.1 234.673C179.605 235.971 178.458 235.96 177.041 234.586C176.107 233.682 175.321 232.627 174.453 231.653C173.468 230.546 172.294 230.261 170.934 230.911C170.613 231.065 170.303 231.241 169.986 231.402C167.966 232.432 166.105 232.174 164.365 230.74C162.561 229.253 162.343 227.364 162.903 225.257C164.062 220.902 165.2 216.542 166.385 212.194C167.762 207.139 168.396 201.948 169.194 196.791C169.632 193.96 170.127 191.159 171.362 188.561C171.918 187.392 172.6 186.255 173.392 185.233C175.748 182.192 181.305 182.036 183.171 185.492C183.872 186.79 184.791 187.394 186.215 187.549C188.573 187.806 190.408 189.142 192.058 190.727C193.014 191.645 193.931 192.327 195.39 192.453C197.554 192.639 198.668 194.193 198.996 196.275C199.125 197.094 199.121 197.932 199.178 198.762Z" fill="#FBFCFC"/>
<path d="M124.914 298.9C124.897 300.56 124.986 302.211 124.653 303.87C124.334 305.462 123.442 306.435 121.924 306.8C120.427 307.16 118.897 307.382 117.388 307.7C116.7 307.846 115.896 307.903 115.377 308.303C113.58 309.685 111.526 309.997 109.365 310.186C108.198 310.288 107.043 310.662 105.913 311.013C100.248 312.775 95.3958 311.491 91.3314 307.19C90.9258 306.761 90.5563 306.293 90.2054 305.819C88.8299 303.953 87.3126 302.737 84.7057 302.519C80.8991 302.202 77.9768 298.487 77.7197 294.619C77.6538 293.63 77.8077 292.709 78.4143 291.929C79.36 290.715 80.293 289.479 81.3532 288.368C83.4431 286.18 86.0317 285.203 89.0719 285.505C89.7812 285.575 90.492 285.63 91.2028 285.673C92.5292 285.754 93.7888 285.612 94.9568 284.852C96.4761 283.863 98.2278 283.478 99.9811 283.136C100.796 282.978 101.678 282.982 102.421 282.661C105.764 281.213 109.177 281.753 112.572 282.24C114.336 282.493 116.03 283.041 117.42 284.299C118.121 284.933 118.957 285.414 119.718 285.981C123.325 288.67 124.953 292.314 124.915 296.761C124.91 297.474 124.914 298.188 124.914 298.9Z" fill="#FBFCFC"/>
<path d="M162.959 316.892C160.669 316.651 158.055 316.302 155.846 314.788C154.155 313.63 152.316 312.882 150.419 312.211C150.196 312.132 149.945 312.121 149.734 312.023C146.192 310.386 142.643 308.798 138.862 307.738C133.607 306.263 131.428 302.129 130.554 297.224C129.729 292.586 132.422 287.807 136.685 285.824C139.465 284.532 142.129 284.5 144.662 286.594C146.576 288.178 148.707 289.487 150.53 291.204C151.481 292.1 152.657 292.63 153.973 292.951C158.398 294.028 162.817 294.654 167.33 293.502C168.112 293.302 168.874 293.153 169.754 293.38C176.075 295.015 178.711 302.671 176.905 306.912C175.601 309.975 173.741 312.73 171.427 315.152C170.744 315.865 169.876 316.274 168.928 316.382C167.049 316.596 165.158 316.711 162.959 316.892Z" fill="#FBFCFC"/>
<path d="M73.7661 334.875C68.4907 335.007 63.1054 333.364 58.0751 330.469C54.5205 328.423 52.0281 325.177 49.1459 322.376C48.6214 321.866 48.8381 320.941 49.5039 320.543C49.9038 320.304 50.3514 320.142 50.7852 319.963C56.3036 317.689 59.7575 313.537 61.6464 307.979C62.6827 304.93 62.7495 304.707 65.8348 304.986C69.2435 305.293 72.6604 305.756 75.8697 307.104C76.4129 307.332 76.9607 307.659 77.5257 307.705C81.1537 308.011 84.0035 309.981 86.6255 312.188C91.3809 316.194 92.1418 322.025 88.9356 326.85C87.4031 329.156 85.5476 331.12 83.4967 332.931C82.1095 334.155 80.4383 334.755 78.6177 334.859C77.1981 334.939 75.7704 334.875 73.7661 334.875Z" fill="#FBFCFC"/>
<path d="M135.24 210.613C137.018 210.613 138.799 210.556 140.575 210.629C142.153 210.695 143.78 212.082 144.145 213.576C144.223 213.896 144.166 214.286 144.061 214.606C143.913 215.053 143.739 215.532 143.441 215.881C140.907 218.855 138.543 222.052 134.903 223.799C130.453 225.933 126.829 229.179 123.118 232.31C120.57 234.459 117.85 236.344 114.991 238.044C112.542 239.501 110.141 239.87 107.707 237.973C107.165 237.551 106.434 237.375 105.798 237.067C103.971 236.177 102.31 235.067 100.986 233.489C100.224 232.581 99.4754 231.643 98.5986 230.854C97.0327 229.446 96.1973 227.637 95.5346 225.719C94.841 223.712 95.2759 222.371 96.9679 221.045C100.667 218.145 104.891 216.348 109.363 215.015C114.491 213.486 119.79 212.778 124.99 211.604C128.378 210.84 131.789 210.613 135.24 210.613Z" fill="#FBFCFC"/>
<path d="M104.068 20.5666C105.206 24.4279 106.283 28.3222 107.086 32.2636C108.129 37.3815 108.495 42.5961 108.58 47.8209C108.618 50.0946 108.157 52.3166 107.558 54.482C106.737 57.4492 105.051 58.5185 101.999 58.0841C101.146 57.9631 100.408 57.876 99.611 58.2679C97.8755 59.12 95.944 59.2759 94.0819 59.4526C89.567 59.8804 88.1185 57.8264 87.3839 54.7027C87.2482 54.1271 87.11 53.5393 87.0872 52.9525C87.0412 51.7683 87.0736 50.5816 87.0736 49.3959C87.1495 46.2945 87.6664 43.2735 88.3777 40.2536C89.1108 37.1415 89.5604 33.9626 90.1457 30.8156C90.9694 26.3867 91.7652 21.9507 93.0405 17.6216" fill="#FBFCFC"/>
<path d="M114.708 340.596C110.009 340.4 105.77 339.915 101.939 337.801C97.8749 335.559 95.0939 332.409 95.0838 327.43C95.0757 323.452 97.2628 320.659 101.156 319.852C101.963 319.686 102.835 319.454 103.612 319.599C105.878 320.018 107.684 319.124 109.564 318.054C111.724 316.823 114.05 316.692 116.386 317.75C117.893 318.434 119.447 319.016 120.95 319.708C124.176 321.195 126.086 323.838 127.046 327.145C128.291 331.43 125.762 336.879 121.743 338.838C119.396 339.983 117.031 341.092 114.708 340.596Z" fill="#FBFCFC"/>
<path d="M9.13525 89.312C9.14892 83.8539 9.37776 78.4241 10.9487 73.134C11.457 71.4223 12.0985 69.7875 12.9171 68.2003C14.7068 64.7303 18.9474 65.5171 20.2865 68.2955C20.7467 69.2498 21.1856 70.2285 21.4995 71.2375C23.4315 77.4475 25.5907 83.5744 27.9069 89.6527C28.8709 92.1821 29.4496 94.8593 30.1877 97.4737C30.3158 97.9273 30.412 98.4012 30.4413 98.8705C30.5831 101.13 29.3741 102.711 27.145 103.231C25.1315 103.7 23.1196 103.689 21.2484 102.783C20.1837 102.268 19.2942 102.296 18.2148 102.696C15.9771 103.526 13.7808 103.264 11.7836 101.926C10.3463 100.962 9.39346 99.7286 9.39447 97.8326C9.3965 94.9924 9.22993 92.1522 9.13525 89.312Z" fill="#FBFCFC"/>
<path d="M154.443 272.513C151.874 272.475 150.275 270.537 150.771 267.942C151.504 264.108 152.267 260.275 153.156 256.475C154.476 250.828 155.271 245.058 157.081 239.524C157.3 238.853 157.371 238.12 157.667 237.488C158.8 235.068 161.398 234.353 163.608 235.83C164.094 236.155 164.515 236.585 164.941 236.994C166.126 238.134 167.483 238.634 169.149 238.342C170.928 238.029 172.444 238.5 173.441 240.123C174.02 241.066 174.296 242.013 173.834 243.148C172.499 246.429 171.324 249.779 169.921 253.029C169.173 254.758 168.159 256.389 167.131 257.977C164.881 261.462 162.581 264.917 160.224 268.332C159.49 269.396 158.558 270.335 157.638 271.254C156.765 272.127 155.618 272.453 154.443 272.513Z" fill="#FAFAFA"/>
<path d="M129.464 271.037C129.681 268.678 129.743 266.292 130.154 263.967C130.654 261.14 130.828 258.288 130.675 255.47C130.449 251.3 131.564 247.259 131.501 243.124C131.487 242.166 131.938 241.573 132.943 241.462C135.441 241.19 137.804 240.4 140.032 239.305C141.166 238.748 142.094 238.947 143.066 239.415C144.345 240.03 145.565 240.765 146.848 241.369C147.607 241.727 147.838 242.336 147.932 243.058C148.104 244.379 147.855 245.669 147.474 246.915C146.023 251.669 144.552 256.417 143.038 261.151C142.569 262.619 142.088 264.065 141.911 265.612C141.6 268.353 140.663 270.91 139.342 273.317C138.889 274.14 138.387 274.976 137.739 275.643C135.196 278.261 131.331 277.502 129.898 274.158C129.469 273.156 129.304 272.115 129.464 271.037Z" fill="#FAFAFA"/>
<path d="M145.541 336.023C143.533 335.509 141.468 335.799 139.4 336.468C138.132 336.877 136.804 336.688 135.538 336.328C133.141 335.647 132.041 333.942 132.468 331.491C132.773 329.743 133.259 328.026 133.561 326.277C134.123 323.029 133.403 320.278 130.775 317.979C128.548 316.03 129.123 314.298 131.964 313.369C133.024 313.023 134.053 313.05 135.114 313.236C138.879 313.897 142.425 315.264 145.8 316.963C147.829 317.986 149.878 318.805 152.055 319.368C154.328 319.957 156.103 321.28 157.487 323.134C159.035 325.206 158.987 326.633 157.269 328.505C155.185 330.775 153.124 333.084 150.352 334.572C148.889 335.359 147.412 336.119 145.541 336.023Z" fill="#FAFAFA"/>
<path d="M110.704 256.734C111.165 256.251 111.983 256.524 112.116 257.178C112.537 259.247 113.132 261.035 113.665 262.845C114.638 266.153 115.024 269.593 114.991 273.032C114.966 275.669 112.067 277.412 109.559 276.438C108.571 276.054 107.574 275.575 106.74 274.933C104.489 273.201 102.262 273.656 100.1 274.934C98.4528 275.908 96.7649 276.729 94.9372 277.274C94.7099 277.342 94.4861 277.423 94.2624 277.503C91.5776 278.476 89.307 277.612 87.4656 275.692C85.4856 273.627 85.0998 271.057 86.004 268.39C86.4835 266.975 87.6185 266.049 89.1211 265.729C91.089 265.308 93.066 264.929 95.0441 264.557C95.7417 264.426 96.528 264.534 97.1476 264.253C101.865 262.118 106.982 260.691 110.697 256.74C110.699 256.738 110.702 256.736 110.704 256.734Z" fill="#FAFAFA"/>
<path d="M182.112 249.677C182.172 249.824 182.176 249.989 182.133 250.142C181.491 252.446 180.842 254.748 180.211 257.055C179.149 260.936 178.078 264.816 177.052 268.707C175.888 273.117 173.867 277.129 171.249 280.817C169.792 282.87 167.832 284.41 165.294 285.064C163.237 285.595 161.264 286.408 159.118 286.644C156.016 286.987 153.228 286.392 150.86 284.276C149.877 283.398 148.66 282.758 147.703 281.714C147.221 281.189 147.689 280.347 148.392 280.47C149.124 280.598 149.818 280.704 150.514 280.713C154.259 280.765 157.753 279.752 161.071 278.03C165.558 275.701 168.694 272.051 171.069 267.723C173.976 262.427 176.728 257.047 179.557 251.708C179.942 250.983 180.346 250.27 180.75 249.555C181.064 249 181.868 249.069 182.106 249.661C182.108 249.667 182.11 249.672 182.112 249.677Z" fill="#FAFAFA"/>
<path d="M123.652 276.226C121.065 275.457 119.555 273.66 119.344 270.984C119.289 270.282 119.289 269.538 119.458 268.862C120.339 265.343 120.175 261.774 119.831 258.239C119.371 253.504 119.771 248.751 119.322 244.025C119.259 243.36 119.481 242.8 120.088 242.585C120.467 242.451 120.821 242.279 121.162 242.083C122.512 241.304 124.154 242.535 123.785 244.048C123.616 244.743 123.473 245.436 123.415 246.149C123.121 249.717 122.79 253.271 122.89 256.855C122.934 258.437 122.932 260.021 122.836 261.601C122.564 266.062 122.385 270.508 123.676 274.86C123.807 275.3 123.971 275.776 123.652 276.226Z" fill="#FAFAFA"/>
<path d="M69.2979 287.785C71.7128 284.518 74.4198 281.783 77.2479 279.161C77.3876 279.031 77.6722 278.952 77.8534 278.996C78.2412 279.09 78.3749 279.424 78.3536 279.807C78.2361 281.896 77.5172 283.696 75.8906 285.095C74.2482 286.508 72.2677 287.363 69.2979 287.785Z" fill="#FAFAFA"/>
</svg>
