<svg width="270" height="352" viewBox="0 0 270 352" fill="none" xmlns="http://www.w3.org/2000/svg">
<path d="M269.045 209.046C267.637 201.422 264.013 194.401 260.169 187.668C252.044 173.44 242.713 159.903 232.316 147.241C222.321 135.069 210.717 124.225 201.521 111.426C196.524 104.469 192.144 97.0677 186.667 90.4612C178.877 81.0631 169.127 73.5943 159.303 66.4608C149.289 59.1897 141.137 49.4752 132.159 40.9919C121.576 30.9936 110.59 21.3852 98.7949 12.8329C78.2203 -2.08422 50.5508 -4.418 31.349 14.2492C21.601 23.7255 15.5095 36.3518 11.0702 49.2014C-3.77534 92.1724 -4.30235 146.075 22.0404 184.907C23.8447 187.566 26.5378 190.459 29.6764 189.767C30.5652 189.571 31.4946 189.09 32.333 189.445C32.845 189.663 33.1828 190.146 33.5126 190.594C35.5156 193.319 38.2057 195.534 41.2637 196.978C41.2452 196.99 41.2267 197.003 41.2081 197.015C37.2593 199.649 34.1327 202.928 31.5197 206.924C31.2469 207.34 30.9977 207.773 30.7049 208.176C30.3911 208.607 29.9501 208.603 29.6488 208.112C26.3886 202.793 18.7837 201.972 13.9455 205.52C10.4746 208.066 8.38354 212.064 6.79149 216.064C4.86661 220.898 3.51228 226.142 3.64141 231.379C3.77104 236.63 5.56979 241.698 5.76248 247.016C5.96218 252.52 6.37108 258.245 9.39053 263.031C14.1156 270.523 17.8543 275.624 20.0449 284.357C22.4258 293.848 25.3937 303.192 28.9226 312.32C33.8364 325.03 37.1056 334.978 49.6629 341.804C61.1141 348.029 74.327 350.663 87.2872 350.646C113.806 350.612 139.434 341.157 163.25 330.339C175.453 324.795 187.063 318.137 198.412 311.031C203.583 307.794 208.614 304.334 213.716 300.986C214.918 300.197 216.03 299.302 217.099 298.343C222.58 293.432 227.737 288.198 232.726 282.789C240.905 273.919 248.148 264.347 254.347 253.996C258.822 246.523 261.934 238.859 265.148 230.868C268.185 223.315 270.6 217.466 269.045 209.046Z" fill="#222222"/>
<path d="M208.008 289.898C207.287 286.167 206.399 282.476 205.358 278.822C205.275 278.528 205.123 278.251 204.974 277.896C204.187 278.13 203.732 278.574 203.223 278.926C200.757 280.632 198.132 282.042 195.403 283.274C194.403 283.726 193.37 283.797 192.302 283.782C191.422 283.77 190.748 283.381 190.193 282.747C188.955 281.33 188.888 279.094 190.015 277.565C190.502 276.903 191.099 276.359 191.779 275.91C192.921 275.155 194.077 274.421 195.228 273.679C197.321 272.331 199.419 270.989 201.506 269.63C202.166 269.2 202.212 269.074 202.017 268.416C201.537 266.806 201.043 265.2 200.546 263.594C200.402 263.129 200.127 263.059 199.74 263.415C197.35 265.62 194.616 267.371 191.976 269.241C189.614 270.915 186.98 272.018 184.177 272.72C182.866 273.049 181.571 272.976 180.328 272.465C178 271.508 177.071 268.483 178.42 266.365C178.93 265.564 179.574 264.894 180.364 264.374C181.613 263.552 182.868 262.743 184.126 261.935C184.126 261.935 184.127 261.935 184.127 261.935C187.762 259.597 191.493 257.354 195.013 254.834C195.593 254.417 196.17 253.995 196.738 253.561C196.909 253.431 197.084 253.292 197.171 253.096C197.296 252.813 197.204 252.485 197.111 252.189C197.011 251.872 196.906 251.561 196.803 251.246C196.281 249.638 195.73 248.052 195.154 246.472C194.834 245.595 194.509 244.719 194.175 243.839C191.683 237.292 188.546 231.013 185.332 224.782C183.974 222.148 182.604 219.522 181.259 216.89C179.172 212.802 176.842 208.87 174.631 204.844C173.057 201.979 171.411 199.158 169.715 196.369C167.628 192.936 165.46 189.554 163.198 186.23C160.711 182.575 158.107 178.999 155.554 175.388C154.187 173.455 152.718 171.604 151.205 169.779C146.658 164.293 142.377 158.663 137.511 153.43C136.356 152.193 135.202 150.957 134.052 149.719C131.456 146.926 128.89 144.111 126.456 141.169C125.074 139.498 123.713 137.795 122.362 136.087C120.331 133.52 118.324 130.937 116.324 128.401C114.664 126.297 113.018 124.184 111.535 121.952C109.227 118.478 106.888 115.026 104.517 111.594C101.188 106.774 99.5859 101.257 96.9718 96.0182C96.2782 94.6278 94.4914 93.5467 93.8543 92.1304C93.622 91.6138 93.3413 91.3511 92.7662 91.298C92.1676 91.243 91.5746 91.1569 90.9855 91.0478C90.1702 90.8972 89.3634 90.6975 88.5721 90.4232C86.6012 89.7395 84.8345 88.739 83.3525 87.2516C82.2825 86.178 81.8731 84.8142 81.6784 83.3833C81.5473 82.4209 81.9241 81.5345 82.4692 80.7532C83.1703 79.7493 83.7384 79.6992 84.7539 80.4795C84.9511 80.6311 85.1453 80.7878 85.343 80.9389C87.9325 82.9214 90.8729 84.0179 94.0995 84.3578C97.7601 84.7436 100.665 82.1436 100.769 78.4435C100.819 76.6437 100.31 74.9931 99.4743 73.4376C97.8407 70.3941 95.4303 68.0914 92.506 66.3066C92.033 66.0178 91.505 65.8016 90.979 65.6184C88.5301 64.7646 86.2063 64.8947 84.0972 66.5614C83.853 66.7546 83.5963 66.9317 83.3455 67.1164C82.6018 67.6639 81.7189 67.773 80.8551 67.7555C80.1769 67.7415 79.6649 67.5148 79.2575 67.1429C79.0964 66.9958 78.9557 66.8201 78.8236 66.6319C78.6214 66.3442 78.4452 66.0188 78.2886 65.66C78.2881 65.659 78.2876 65.6575 78.2871 65.6565C78.0418 65.0949 77.7891 64.5389 77.5303 63.9864C77.4993 63.9203 77.4678 63.8547 77.4367 63.7892C73.3557 55.1427 67.6587 47.6314 60.7865 40.9678C59.247 39.4749 57.6474 38.0575 55.9818 36.7257C53.715 34.9134 51.3227 33.2653 48.7582 31.8479C47.3188 31.0522 45.8368 30.3565 44.2913 29.8219C43.6067 29.5852 42.9105 29.377 42.1978 29.2114C40.8284 28.893 39.4846 28.7629 38.1964 29.0021C37.2705 29.1743 36.3746 29.5397 35.5188 30.1638C35.4862 30.1878 35.4532 30.2083 35.4207 30.2329C34.9752 30.5702 34.5348 30.9195 34.1279 31.3009C32.9292 32.4235 31.8557 33.6502 30.8677 34.945C30.2341 35.7753 29.6285 36.6281 29.0705 37.5185C27.8137 39.5239 26.5625 41.5324 25.3428 43.5604C24.7657 44.5188 24.1612 45.4833 23.7543 46.5183C22.3439 50.1073 20.9305 53.6998 19.6808 57.3474C18.6733 60.2882 17.913 63.3132 17.0207 66.2946C16.1448 69.2185 15.5122 72.2024 14.7505 75.1538C13.8786 78.5306 13.2095 81.9494 12.4142 85.3412C12.2725 85.9448 12.218 86.5699 12.1379 87.187C11.7796 89.9657 11.4237 92.745 11.0714 95.5242C10.664 98.7383 10.2481 101.949 10.2751 105.202C10.2906 107.07 10.2901 108.949 10.1139 110.806C9.82414 113.859 9.86018 116.904 10.0203 119.956C10.239 124.124 10.4703 128.292 10.6825 132.46C10.8441 135.633 10.9963 138.808 11.3927 141.963C11.6965 144.38 12.241 146.743 13.281 148.968C13.9817 150.466 14.9687 151.73 16.327 152.682C18.0682 153.903 19.7639 153.842 21.5096 152.599C23.0411 151.509 24.3989 150.25 25.6546 148.851C27.3057 147.011 29.3502 145.749 31.705 144.955C35.8796 143.549 40.2389 143.214 44.5641 142.759C48.4064 142.356 52.2811 142.54 56.1424 142.589C57.4472 142.605 58.753 142.71 60.0442 142.964C61.0207 143.156 62.0112 143.303 63.0026 143.384C66.9935 143.709 70.8428 144.731 74.6996 145.714C76.5684 146.19 78.4167 146.75 80.2945 147.186C83.5682 147.945 86.8299 148.734 90.0005 149.866C91.4645 150.388 92.9424 150.875 94.4233 151.349C98.5759 152.677 102.659 154.173 106.543 156.18C107.923 156.894 109.352 157.514 110.768 158.158C115.582 160.348 120.421 162.481 124.901 165.336C126.482 166.344 128.02 167.39 129.434 168.62C132.177 171.004 134.513 173.755 136.662 176.672C141.572 183.337 145.359 190.608 148.254 198.349C150.047 203.142 151.483 208.041 152.143 213.131C152.519 216.034 152.885 218.946 153.054 221.866C153.233 224.973 153.259 228.089 152.824 231.197C152.251 235.289 151.117 239.231 149.802 243.128C149.545 243.889 149.181 244.627 148.767 245.316C147.643 247.188 146.344 248.94 144.923 250.6C143.319 252.473 141.21 253.583 138.876 254.092C136.484 254.614 134.046 254.467 131.687 253.645C129.326 252.822 127.056 251.825 124.995 250.388C124.281 249.89 123.545 249.442 122.656 249.272C119.417 248.654 116.18 248.019 112.947 247.363C102.024 245.142 91.0465 243.249 80.0002 241.747C71.9754 240.655 63.9365 239.725 55.8571 239.137C49.0795 238.644 42.2979 238.34 35.5027 238.507C31.4528 238.607 27.4173 238.921 23.4159 239.585C20.8855 240.007 18.4391 240.699 16.1308 241.838C15.0027 242.395 13.9652 243.081 13.1599 244.061C11.8396 245.667 11.4272 247.462 12.0678 249.481C12.5323 250.944 13.3941 252.149 14.4101 253.26C15.5918 254.553 16.9311 255.669 18.3485 256.694C20.928 258.559 23.6662 260.165 26.4859 261.631C27.4439 262.128 28.2667 262.761 28.9553 263.586C29.4113 264.133 29.6635 264.743 29.6971 265.458C29.7361 266.276 29.68 267.07 29.4018 267.851C28.9013 269.255 27.9464 270.132 26.4924 270.471C25.6266 270.672 24.7622 270.63 23.8944 270.496C23.4745 270.431 23.0721 270.171 22.6382 270.372C22.5211 270.793 22.7763 271.103 22.9705 271.4C23.7623 272.604 24.3358 273.911 24.8673 275.244C25.9054 277.845 26.9384 280.448 28.0159 283.033C29.6225 286.888 30.9333 290.84 32.0574 294.86C32.8947 297.854 33.5283 300.912 34.6619 303.818C37.1494 310.195 39.6623 316.562 42.1723 322.93C42.423 323.567 42.7298 324.181 43.0061 324.807C43.391 325.681 43.9805 326.362 44.7408 326.958C48.8098 330.147 53.3702 332.412 58.2365 334.046C65.1888 336.38 72.3683 337.569 79.6839 337.91C88.1102 338.302 96.5044 337.867 104.848 336.643C112.183 335.567 119.441 334.088 126.594 332.119C132.654 330.452 138.655 328.603 144.545 326.401C145.653 325.987 146.788 325.644 147.884 325.201C151.404 323.778 154.936 322.381 158.417 320.865C161.897 319.35 165.351 317.77 168.76 316.103C174.746 313.174 180.598 309.996 186.322 306.575C191.885 303.25 197.339 299.765 202.612 296C204.283 294.806 205.865 293.489 207.503 292.25C208.064 291.825 208.305 291.33 208.114 290.635C208.048 290.399 208.055 290.142 208.008 289.898ZM159.521 253.264C159.497 254.857 158.988 256.313 158.272 257.714C157.876 258.488 157.522 259.283 157.122 260.056C155.419 263.342 153.323 266.343 150.47 268.735C148.464 270.416 146.018 271.172 143.508 271.708C142.721 271.876 141.907 271.946 141.1 271.995C139.204 272.112 137.556 271.589 136.242 270.122C134.537 268.216 135.081 265.083 137.686 264.154C138.15 263.989 138.642 263.895 139.128 263.798C141.034 263.417 142.803 262.718 144.51 261.769C146.752 260.523 148.401 258.688 149.903 256.693C151.062 255.153 152.123 253.539 153.239 251.967C153.599 251.462 153.945 250.931 154.387 250.506C155.305 249.623 156.422 249.243 157.645 249.741C158.845 250.231 159.443 251.222 159.519 252.517C159.533 252.765 159.521 253.015 159.521 253.264Z" fill="white"/>
<path d="M255.032 196.676C253.974 194.989 253.058 193.212 251.991 191.53C248.788 186.483 245.544 181.462 242.307 176.437C242.004 175.968 241.624 175.548 241.285 175.101C239.817 173.165 238.307 171.259 236.895 169.283C235.227 166.949 233.518 164.653 231.659 162.468C230.852 161.519 230.107 160.517 229.333 159.54C225.387 154.56 221.482 149.546 217.477 144.613C214.964 141.519 212.334 138.519 209.699 135.527C206.691 132.111 203.491 128.88 200.186 125.751C198.92 124.551 197.695 123.306 196.45 122.084C195.467 121.12 194.577 120.074 193.866 118.897C192.868 117.245 191.847 115.6 190.969 113.884C189.034 110.1 186.795 106.515 184.237 103.127C182.773 101.19 181.22 99.3158 179.832 97.3258C177.099 93.408 173.762 90.0672 170.182 86.9522C167.029 84.209 163.655 81.7506 160.179 79.4373C157.515 77.6641 155.183 75.553 153.036 73.1777C146.975 66.4717 140.649 60.0184 134.087 53.8003C124.986 45.1769 115.512 36.9964 105.357 29.6267C97.9856 24.2774 90.3371 19.3796 82.0946 15.4618C76.5652 12.8337 70.8801 10.6591 64.7801 9.78025C61.617 9.32481 58.4449 9.25574 55.3049 9.98145C51.7229 10.8088 48.7415 12.592 46.5113 15.5709C45.9017 16.3842 45.4748 17.2541 45.198 18.4222C46.5633 18.8847 47.791 19.3261 49.0357 19.7125C49.9847 20.0068 50.9496 20.2565 51.9186 20.4787C53.5647 20.8571 55.1437 21.4081 56.6567 22.1599C58.2783 22.9661 59.8083 23.9231 61.2887 24.9596C65.711 28.0561 69.5363 31.7958 72.9521 35.9548C76.6773 40.4908 80.0571 45.2569 82.547 50.6127C83.6226 52.9259 84.8613 55.1631 85.9909 57.4519C86.4383 58.3577 87.0564 58.6846 88.0829 58.5634C92.4061 58.0539 96.2014 59.4548 99.5922 62.0228C103.293 64.8261 105.731 68.5352 106.931 73.0106C108.372 78.3798 107.783 83.5053 104.837 88.2905C103.766 89.2755 104.004 90.3951 104.506 91.5387C104.682 91.9376 104.862 92.3345 105.06 92.7223C107.096 96.7212 109.345 100.598 111.822 104.338C112.99 106.102 114.296 107.775 115.49 109.523C117.176 111.992 118.717 114.566 120.496 116.964C124.615 122.518 128.847 127.986 133.296 133.287C136.418 137.008 139.415 140.839 142.364 144.701C144.333 147.28 146.37 149.795 148.542 152.198C151.257 155.203 154.025 158.16 156.781 161.128C157.717 162.137 158.543 163.229 159.31 164.366C161.051 166.949 162.776 169.545 164.742 171.964C167.142 174.919 169.239 178.093 171.403 181.21C174.064 185.045 176.458 189.065 178.977 192.999C180.725 195.731 182.108 198.667 183.708 201.482C184.753 203.321 185.781 205.181 186.657 207.104C189.577 213.514 192.922 219.702 196.28 225.884C197.498 228.128 198.76 230.35 199.902 232.632C201.881 236.583 203.781 240.574 205.716 244.548C205.852 244.828 205.99 245.11 206.168 245.364C206.37 245.65 206.668 245.74 206.97 245.523C207.272 245.305 207.544 245.045 207.828 244.802C211.975 241.257 215.459 237.117 218.638 232.708C219.73 231.192 220.765 229.639 221.682 228.005C222.56 226.441 223.845 225.287 225.536 224.619C227.618 223.797 230.113 225.378 230.077 227.598C230.065 228.348 230.079 229.089 229.809 229.808C229.349 231.034 228.885 232.258 228.171 233.363C227.089 235.038 225.91 236.643 224.687 238.22C223.082 240.292 221.283 242.193 219.574 244.174C218.069 245.919 216.619 247.715 214.798 249.16C214.556 249.351 214.349 249.591 214.14 249.821C212.846 251.252 211.576 252.705 210.256 254.111C209.684 254.72 209.507 255.323 209.747 256.142C210.291 257.998 211.012 259.787 211.728 261.577C212.046 262.373 212.477 262.502 213.178 262.051C213.7 261.717 214.202 261.341 214.676 260.94C215.579 260.176 216.471 259.395 217.341 258.593C219.174 256.905 221.001 255.209 222.808 253.493C223.905 252.452 225.107 251.573 226.51 251.009C228.331 250.276 229.985 251.618 229.684 253.553C229.646 253.797 229.553 254.033 229.494 254.274C228.899 256.661 227.501 258.529 225.737 260.176C222.367 263.321 219.044 266.518 215.627 269.611C214.562 270.575 214.224 271.559 214.578 272.914C215.206 275.323 215.765 277.751 216.365 280.168C216.47 280.59 216.571 281.032 216.782 281.404C217.345 282.394 218.244 283.226 219.698 282.197C219.952 282.016 220.193 281.819 220.439 281.628C222.563 279.986 224.521 278.158 226.422 276.267C231.467 271.248 236.082 265.852 240.419 260.216C245.709 253.338 250.484 246.125 254.46 238.401C256.6 234.241 258.457 229.961 259.82 225.478C260.874 222.006 261.591 218.478 261.666 214.832C261.729 211.73 261.191 208.769 259.868 205.942C258.387 202.783 256.89 199.639 255.032 196.676ZM170.095 116.656C169.544 118.135 168.509 119.329 167.29 120.324C164.21 122.84 160.749 123.521 156.972 122.256C152.942 120.907 150.315 118.046 148.612 114.248C147.709 112.234 147.334 110.094 147.203 107.91C147.127 106.646 147.401 105.427 147.977 104.305C148.532 103.223 149.398 102.967 150.472 103.536C151.318 103.983 151.922 104.686 152.395 105.516C152.558 105.802 152.983 105.792 153.182 105.524C153.441 105.177 153.656 104.796 153.913 104.447C154.43 103.749 154.904 103.006 155.499 102.381C158.607 99.1211 163.075 98.8378 166.591 101.662C168.711 103.363 169.952 105.628 170.608 108.224C170.897 109.369 171.091 110.54 171.002 111.681C171.073 113.443 170.679 115.085 170.095 116.656Z" fill="#F2F2F0"/>
<path d="M68.6971 165.759C68.4679 165.393 68.2156 165.023 67.9048 164.729C66.9634 163.837 65.9014 163.98 65.2467 165.075C65.024 165.447 64.8368 165.848 64.6907 166.257C63.6491 169.166 61.8509 171.641 60.1798 174.191C59.5802 175.107 58.7744 175.762 57.8214 176.262C57.4931 176.434 57.1498 176.583 56.8385 176.782C56.6208 176.921 56.5247 177.171 56.5652 177.431C56.6078 177.705 56.799 177.883 57.0737 177.879C57.6543 177.871 58.1653 178.058 58.6673 178.329C59.4445 178.749 60.0882 179.333 60.7293 179.927C64.2688 183.201 67.2822 186.928 70.0029 190.888C72.4718 194.481 74.8876 198.116 76.31 202.293C76.3501 202.411 76.4166 202.519 76.4647 202.634C76.6829 203.156 77.0743 203.371 77.6378 203.37C78.3815 203.368 79.1178 203.36 79.863 203.535C82.3444 204.115 84.2783 205.495 85.7993 207.487C88.1636 210.584 89.4358 214.117 89.9128 217.961C90.0199 218.825 90.1315 219.69 90.2957 220.544C90.3628 220.896 90.5244 221.324 90.8963 221.419C91.3713 221.541 91.4748 221.048 91.641 220.74C91.9663 220.138 92.2351 219.505 92.5679 218.907C93.5569 217.129 94.9237 215.697 96.6544 214.633C97.8381 213.906 99.1403 213.479 100.536 213.44C103.589 213.354 105.913 214.783 107.747 217.088C108.967 218.621 109.697 220.408 110.08 222.33C110.226 223.062 110.315 223.808 110.502 224.529C110.716 225.348 111.451 225.561 112.074 224.994C112.904 224.24 113.692 223.441 114.51 222.674C116.756 220.568 119.253 218.89 122.173 217.807C123.802 217.202 125.419 217.064 127.115 217.097C128.321 217.122 129.281 217.601 130.138 218.36C130.554 218.729 130.908 219.172 131.274 219.596C132.606 221.137 133.36 222.999 133.962 224.889C134.716 227.251 135.389 229.624 135.677 232.133C136.002 234.971 136.395 237.804 136.613 240.654C136.662 241.289 136.773 241.892 137.098 242.438C137.492 243.099 138.085 243.336 138.845 243.171C140.056 242.908 141.004 242.244 141.755 241.274C142.794 239.93 143.542 238.435 144.112 236.841C145.32 233.456 145.794 229.96 145.6 226.378C145.6 225.133 145.629 223.887 145.591 222.642C145.556 221.517 145.267 220.431 144.932 219.358C144.779 218.871 144.459 218.65 143.958 218.678C143.771 218.688 143.579 218.682 143.402 218.73C141.976 219.111 140.566 218.939 139.147 218.674C136.94 218.263 135.021 217.332 133.465 215.684C131.886 214.011 130.877 212.026 130.32 209.821C129.817 207.829 129.482 205.802 129.531 203.729C129.558 202.547 129.584 201.362 129.583 200.178C129.581 198.882 129.262 198.629 128 198.88C127.757 198.928 127.525 199.048 127.281 199.077C125.854 199.246 124.428 199.369 123.026 198.91C119.621 197.796 117.458 195.433 116.455 192.065C115.798 189.861 115.533 187.561 115.366 185.261C115.344 184.956 115.303 184.643 115.203 184.358C115.108 184.092 114.827 183.996 114.594 184.135C114.332 184.291 114.134 184.549 113.895 184.747C112.22 186.132 110.305 186.997 108.145 187.212C104.375 187.587 101.132 186.354 98.4752 183.7C96.4697 181.696 95.1074 179.244 94.0384 176.632C93.8497 176.172 93.7436 175.678 93.5489 175.221C93.3016 174.642 92.8867 174.513 92.3577 174.816C91.0084 175.588 89.6621 176.368 88.3158 177.145C87.1802 177.801 86.021 178.43 84.7418 178.735C81.941 179.404 79.3045 179.178 77.0347 177.16C75.3506 175.663 73.8131 174.049 72.6349 172.109C71.3427 169.98 70.0194 167.869 68.6971 165.759Z" fill="#CA4140"/>
<path d="M63.5098 230.353C65.9912 230.48 68.4771 230.541 70.955 230.716C73.5586 230.899 76.1631 231.122 78.7522 231.448C80.1966 231.63 81.605 231.393 83.0284 231.364C83.9427 231.345 84.4678 230.763 84.6474 229.837C84.7185 229.472 84.725 229.095 84.748 228.723C84.8516 227.044 84.9087 225.366 84.715 223.319C84.715 222.317 84.7345 220.949 84.7105 219.58C84.6715 217.311 84.1199 215.153 83.2536 213.066C82.9853 212.421 82.653 211.819 82.0334 211.463C80.5189 210.593 78.9599 210.151 77.2482 210.956C75.544 211.756 73.9845 212.779 72.6102 214.048C68.6778 217.68 65.5423 221.892 63.4822 226.866C63.1714 227.617 62.9337 228.384 62.7931 229.184C62.7826 229.246 62.7595 229.305 62.7505 229.365C62.6549 230.012 62.8681 230.32 63.5098 230.353Z" fill="white"/>
<path d="M36.4241 227.548C37.6913 228.144 39.0246 228.382 40.4075 228.417C41.0301 228.432 41.6842 228.313 42.2698 228.463C44.2097 228.964 46.2021 229.093 48.1661 229.414C48.581 229.482 48.9939 229.559 49.4063 229.64C50.6445 229.879 51.8802 230.136 53.1464 230.191C53.4577 230.191 53.7745 230.23 54.0783 230.184C54.9837 230.046 55.4252 229.395 55.2735 228.449C55.1854 227.899 55.0948 227.349 54.9752 226.805C54.3191 223.822 53.7991 220.82 53.5808 217.767C53.5103 216.776 53.4042 215.773 53.178 214.808C52.8376 213.354 52.3526 211.949 51.5208 210.67C50.0139 208.352 46.6991 207.688 44.5305 209.653C43.7923 210.322 43.0441 210.987 42.3719 211.72C39.1573 215.222 37.0932 219.393 35.4752 223.808C35.286 224.324 35.2469 224.903 35.1974 225.459C35.1113 226.432 35.5147 227.121 36.4241 227.548Z" fill="white"/>
<path d="M129.331 225.915C128.415 223.877 127.063 223.112 124.869 223.407C122.377 223.743 120.487 225.089 118.941 226.978C116.88 229.497 115.216 232.27 113.815 235.201C113.575 235.701 113.397 236.245 113.282 236.787C112.961 238.291 113.351 239.144 114.656 239.902C115.031 240.12 115.425 240.31 115.823 240.488C117.071 241.046 118.309 241.632 119.58 242.133C121.796 243.007 124.119 243.433 126.485 243.641C126.609 243.652 126.734 243.655 126.858 243.656C128.604 243.666 129.545 242.949 129.894 241.26C130.364 238.989 130.401 236.684 130.351 234.375C130.351 233.441 130.356 232.506 130.35 231.571C130.336 229.628 130.142 227.719 129.331 225.915Z" fill="white"/>
<path d="M61.5951 155.201C60.559 154.628 59.4419 154.676 57.946 154.625C55.3034 155.064 52.2394 154.78 49.2135 155.125C47.24 155.351 45.2516 155.607 43.3622 156.222C41.2607 156.906 40.6706 157.286 41.3838 159.954C41.4153 160.073 41.4734 160.186 41.5209 160.3C42.3588 162.317 43.3392 164.25 44.7566 165.934C45.5569 166.884 46.3672 167.828 47.1344 168.805C47.9687 169.867 49.0733 170.525 50.2685 171.08C51.6458 171.719 53.7068 171.321 54.5001 170.147C55.0206 169.378 55.6608 168.688 56.1708 167.912C57.0581 166.563 57.9014 165.185 58.7348 163.801C59.6632 162.258 60.567 160.7 61.4674 159.14C61.9034 158.386 62.3173 157.609 62.4109 156.726C62.4814 156.058 62.2317 155.553 61.5951 155.201Z" fill="white"/>
<path d="M104.481 220.838C104.07 220.021 103.486 219.422 102.665 219.037C100.947 218.233 99.391 218.521 98.0067 219.771C96.8395 220.824 95.9316 222.087 95.1764 223.461C93.6359 226.264 92.709 229.3 91.8321 232.351C91.4778 233.582 91.8391 234.275 93.0243 234.695C93.7815 234.963 94.5978 235.06 95.3701 235.29C97.8981 236.044 100.579 235.641 102.889 236.381C103.61 236.327 104.11 236.315 104.602 236.246C105.567 236.111 106.171 235.551 106.413 234.608C106.617 233.814 106.639 233.017 106.522 232.2C106.18 229.795 105.898 227.383 105.542 224.98C105.332 223.569 105.139 222.147 104.481 220.838Z" fill="white"/>
<path d="M100.427 178.111C101.007 179.09 101.812 179.852 102.664 180.586C103.556 181.354 104.552 181.763 105.55 181.696C106.357 181.736 106.961 181.638 107.571 181.489C111.321 180.573 113.384 177.889 114.829 174.573C115.17 173.79 114.939 173.1 114.195 172.629C113.519 172.202 112.79 171.82 112.036 171.561C108.164 170.228 104.336 168.786 100.527 167.287C99.5489 166.901 98.5449 166.575 97.5379 166.273C96.8012 166.052 96.3988 166.317 96.088 167.029C95.7231 167.864 95.6396 168.703 95.9464 169.567C96.1746 170.21 96.4113 170.851 96.6526 171.489C97.5634 173.894 99.13 175.925 100.427 178.111Z" fill="white"/>
<path d="M15.293 229.785C15.5393 229.767 15.788 229.719 16.0252 229.649C18.377 228.958 20.7924 228.811 23.2253 228.747C24.2783 228.719 25.3323 228.577 26.3769 228.426C26.9759 228.34 27.3643 227.866 27.4284 227.272C27.4614 226.965 27.4339 226.651 27.4339 226.34C27.3233 224.412 26.7332 220.962 26.1727 219.181C25.6642 217.565 24.94 216.051 23.8644 214.736C22.3114 212.835 20.0327 212.78 18.4116 214.574C17.7389 215.318 17.2299 216.172 16.7605 217.053C15.4076 219.59 14.4472 222.281 13.6869 225.045C13.4407 225.941 13.202 226.845 13.194 227.792C13.1825 229.066 14.0103 229.875 15.293 229.785Z" fill="white"/>
<path d="M78.9005 169.63C79.4045 170.647 80.2168 171.449 81.0541 172.193C82.3174 173.315 83.2203 173.341 84.526 172.262C86.8623 170.331 88.7071 168.002 89.9648 165.231C90.5109 164.027 90.3888 163.464 89.4003 162.602C88.2977 161.641 86.9899 161.063 85.5936 160.694C84.2678 160.344 82.9645 159.94 81.6983 159.411C81.2408 159.219 80.7664 159.038 80.2819 158.946C78.9346 158.69 77.6148 158.342 76.3115 157.918C75.9011 157.785 75.4682 157.72 75.1944 157.657C73.3876 157.772 72.5463 158.608 73.1905 160.226C73.4642 160.916 73.8466 161.568 74.232 162.205C75.7459 164.706 77.5943 166.995 78.9005 169.63Z" fill="white"/>
<path d="M124.059 193.98C125.125 194.536 126.184 194.546 127.277 194.034C129.051 193.205 131.362 189.889 131.478 187.882C131.579 187.109 131.258 186.377 130.859 185.659C129.351 182.955 127.166 180.837 124.885 178.814C124.192 178.199 123.395 177.692 122.608 177.194C121.299 176.365 120.42 176.666 119.815 178.101C119.547 178.739 119.441 179.41 119.409 180.101C119.338 181.655 119.318 183.207 119.41 184.763C119.542 186.966 120.082 189.05 121.054 191.03C121.711 192.373 122.758 193.301 124.059 193.98Z" fill="white"/>
<path d="M32.7392 159.768C32.2217 160.104 31.7762 160.55 31.2962 160.943C28.4635 163.266 25.7799 165.779 22.6163 167.676C22.2469 167.897 21.8966 168.171 21.5908 168.475C20.9331 169.126 20.9286 169.582 21.3175 170.467C22.325 172.76 24.3154 174.241 25.9025 176.05C26.5046 176.735 27.3609 176.826 28.3083 176.529C29.7928 176.063 30.7532 175.061 31.4204 173.758C32.582 171.491 33.61 169.158 34.3212 166.704C34.7191 165.331 35.0024 163.93 35.113 162.451C35.0514 161.878 35.0429 161.247 34.9058 160.646C34.664 159.588 33.649 159.178 32.7392 159.768Z" fill="white"/>
<path d="M135.059 210.73C136.813 212.306 139.008 213.069 141.178 213.81C142.454 214.245 143.521 213.403 143.701 212.057C143.734 211.813 143.705 211.56 143.705 210.911C143.674 210.691 143.584 210.076 143.497 209.461C142.861 204.964 140.594 201.167 138.282 197.397C137.691 196.433 136.837 196.447 136.208 197.356C136.102 197.509 136.004 197.67 135.926 197.839C134.905 200.051 134.166 202.358 133.702 204.746C133.525 205.656 133.518 206.599 133.432 207.527C133.373 208.17 133.498 208.78 133.872 209.301C134.233 209.803 134.603 210.319 135.059 210.73Z" fill="white"/>
<path d="M63.8279 210.092C64.8329 210.89 66.3859 210.722 67.1772 209.725C68.0515 208.624 68.3658 207.298 68.5986 206.168C68.6186 204.801 68.1982 202.91 67.6066 201.607C66.4039 198.957 64.6002 196.75 62.5126 194.756C62.3785 194.628 62.2303 194.511 62.0762 194.407C61.1383 193.771 60.356 193.786 59.5417 194.558C58.3445 195.693 57.789 197.097 57.9942 198.761C58.1093 199.695 58.3716 200.596 58.7675 201.444C59.5307 203.079 60.2975 204.714 61.1413 206.308C61.6633 207.294 62.3124 208.217 62.941 209.142C63.1823 209.497 63.4916 209.825 63.8279 210.092Z" fill="white"/>
<path d="M43.8297 189.688C44.3467 190.192 44.8938 190.229 45.5324 189.856C45.7441 189.732 45.9488 189.579 46.1174 189.402C47.2736 188.187 48.5268 187.067 49.5588 185.733C50.4202 184.617 50.4487 184.473 49.5999 183.344C49.4507 183.146 49.2961 182.95 49.1279 182.767C48.246 181.806 47.3712 180.838 46.4708 179.895C45.6505 179.035 44.686 178.345 43.6936 177.705C43.115 177.332 42.4644 177.106 41.7472 177.212C41.0275 177.319 40.6396 177.692 40.5685 178.418C40.5085 179.036 40.4965 179.659 40.4634 180.28C40.3423 183.307 41.1786 186.054 42.8798 188.543C43.1586 188.951 43.4764 189.343 43.8297 189.688Z" fill="white"/>
<path d="M163.191 103.846C160.157 102.742 156.813 104.849 156.478 108.075C156.185 110.901 158.257 113.202 161.095 113.2C163.464 113.198 165.331 111.629 165.972 109.102C166.529 106.903 165.322 104.623 163.191 103.846Z" fill="white"/>
</svg>
